<?xml version="1.0" standalone="no"?>
<!DOCTYPE svg PUBLIC "-//W3C//DTD SVG 1.1//EN" "http://www.w3.org/Graphics/SVG/1.1/DTD/svg11.dtd" >
<svg xmlns="http://www.w3.org/2000/svg">
<defs>
<font id="Big_Bottom_Cartoon" horiz-adv-x="250" >
<font-face units-per-em="100" ascent="80" descent="-20" />
<glyph unicode=" " horiz-adv-x="56" d="" />
<glyph unicode="!" horiz-adv-x="35.73729863692688" d="M3.118923172242809 115.894401526063060 C6.853923172242808 118.087401526063080 27.908923172242808 118.087401526063080 32.322923172242810 116.625401526063070 C36.737923172242809 115.163401526063070 32.662923172242813 40.967401526063071 30.624923172242809 39.139401526063068 C28.587923172242810 37.312401526063070 9.407923172242809 36.391401526063063 7.193923172242808 38.773401526063068 C5.155923172242812 40.967401526063071 -0.617076827757188 113.701401526063070 3.118923172242809 115.894401526063060 zM32.817923172242814 17.458009664507145 C30.669923172242815 24.313009664507149 22.580923172242816 28.614009664507151 14.771923172242818 27.340009664507150 C7.224923172242818 26.108009664507151 3.966923172242827 16.919009664506781 5.447923172242820 10.788009664506781 C7.134923172242822 3.805009664506777 15.303923172242822 -1.805990335493817 22.601923172242824 0.480009664506191 C29.899923172242826 2.766009664506193 34.965923172242810 10.603009664507141 32.817923172242814 17.458009664507145 zM10.465923172242810 82.465436134441731 C10.465923172242810 82.465436134441731 10.465923172242810 82.465436134441731 10.465923172242810 82.465436134441731 C10.465923172242810 82.465436134441731 10.465923172242810 82.465436134441731 10.465923172242810 82.465436134441731 C10.465923172242810 82.465436134441731 10.465923172242810 82.465436134441731 10.465923172242810 82.465436134441731 z" />
<glyph unicode="&#x22;" horiz-adv-x="58.456009913258981" d="M45.495390334572484 117.550822839569880 C52.033390334572488 117.479822839569890 58.148390334572483 110.647822839569870 57.221390334572490 102.768822839569880 C56.368390334572496 95.519822839569869 51.109390334572495 77.184822839569676 45.921390334572493 61.833822839569677 C40.946390334572484 77.184822839569676 34.906390334572478 94.666822839569875 34.195390334572487 102.341822839569890 C33.484390334572488 110.016822839569880 38.957390334572487 117.621822839569860 45.495390334572484 117.550822839569880 zM1.196390334572484 102.342822839569880 C1.907390334572479 94.667822839569880 7.947390334572488 77.184822839569691 12.922390334572484 61.834822839569682 C18.110390334572500 77.185822839569695 23.369390334572486 95.520822839569874 24.222390334572481 102.769822839569880 C25.149390334572495 110.648822839569870 19.034390334572478 117.480822839569900 12.496390334572482 117.551822839569870 C5.957390334572484 117.621822839569840 0.485390334572486 110.017822839569870 1.196390334572484 102.342822839569880 zM9.955390334572485 81.845857447948532 C9.955390334572485 81.845857447948532 9.955390334572485 81.845857447948532 9.955390334572485 81.845857447948532 C9.955390334572485 81.845857447948532 9.955390334572485 81.845857447948532 9.955390334572485 81.845857447948532 C9.955390334572485 81.845857447948532 9.955390334572485 81.845857447948532 9.955390334572485 81.845857447948532 z" />
<glyph unicode="#" horiz-adv-x="95.469640644361846" d="M26.647456009913249 71.247822839569636 C16.954456009913251 71.464822839569649 10.029456009913250 71.753822839569651 9.643456009913248 72.043822839569643 C8.310456009913249 73.043822839569643 9.976456009913246 79.376822839569641 11.310456009913249 80.710822839569644 C11.699456009913249 81.099822839569640 18.930456009913250 81.289822839569695 28.976456009913250 81.364822839569655 C28.976456009913250 81.364822839569655 37.568456009913248 116.672822839569870 38.310456009913253 117.043822839569880 C40.310456009913253 118.043822839569880 45.977456009913254 117.710822839569890 47.643456009913251 116.710822839569890 C48.249456009913246 116.347822839569890 45.508456009913253 101.053822839569680 41.692456009913251 81.667822839569666 L63.981456009913245 81.375822839569651 C68.634456009913251 101.056822839569660 72.573456009913244 116.675822839569880 73.309456009913248 117.043822839569880 C75.309456009913248 118.043822839569880 80.976456009913250 117.710822839569890 82.642456009913246 116.710822839569890 C83.254456009913241 116.343822839569870 76.309456009913248 81.226822839569650 76.309456009913248 81.226822839569650 C76.309456009913248 81.226822839569650 94.308456009913243 81.043822839569657 94.308456009913243 81.043822839569657 C94.308456009913243 81.043822839569657 94.308456009913243 74.043822839569657 92.308456009913243 72.043822839569657 C91.714456009913249 71.449822839569649 74.500456009913250 70.671822839569657 74.500456009913250 70.671822839569657 C74.500456009913250 70.671822839569657 71.153456009913256 54.229822839569870 69.465456009913254 46.177822839569878 L86.308456009913257 46.044822839569882 C87.975456009913259 43.711822839569884 86.057456009913253 38.039822839569887 84.057456009913253 36.039822839569887 C83.483456009913255 35.465822839569888 67.064456009913258 35.002822839569880 67.064456009913258 35.002822839569880 C67.064456009913258 35.002822839569880 59.586456009913249 0.864822839568880 58.976456009913250 0.376822839568881 C57.309456009913248 -0.956177160431110 46.976456009913250 -0.956177160431110 46.309456009913248 0.709822839568893 C46.068456009913248 1.312822839568902 49.566456009913253 15.330822839569869 53.847456009913245 34.597822839569879 C53.847456009913245 34.597822839569879 38.969456009913245 34.924822839569885 32.059456009913248 35.009822839569885 C32.059456009913248 35.009822839569885 24.586456009913249 0.863822839568904 23.976456009913250 0.376822839568881 C22.309456009913248 -0.956177160431110 11.976456009913250 -0.956177160431110 11.309456009913248 0.709822839568893 C11.066456009913249 1.317822839568898 18.922456009913247 35.351822839569870 18.922456009913247 35.351822839569870 C18.922456009913247 35.351822839569870 1.773456009913247 35.752822839569866 1.391456009913249 36.038822839569868 C0.058456009913250 37.038822839569868 1.976456009913250 44.376822839569861 3.309456009913248 45.710822839569865 C3.696456009913248 46.097822839569865 10.849456009913247 46.287822839569998 20.809456009913248 46.363822839569870 L26.647456009913249 71.247822839569636 zM34.476456009913250 46.402822839569872 C41.346456009913247 46.398822839569547 55.900456009913256 46.318822839569869 55.900456009913256 46.318822839569869 C55.900456009913256 46.318822839569869 59.609456009913259 62.651822839569640 61.473456009913264 70.671822839569643 C61.473456009913264 70.671822839569643 46.571456009913263 70.933822839569672 39.474456009913268 71.025822839569628 L34.476456009913250 46.402822839569872 zM10.976456009913250 81.845857447948532 C10.976456009913250 81.845857447948532 10.976456009913250 81.845857447948532 10.976456009913250 81.845857447948532 C10.976456009913250 81.845857447948532 10.976456009913250 81.845857447948532 10.976456009913250 81.845857447948532 C10.976456009913250 81.845857447948532 10.976456009913250 81.845857447948532 10.976456009913250 81.845857447948532 z" />
<glyph unicode="$" horiz-adv-x="81.464513573149475" d="M34.071390334572484 0.268641779790812 C36.402390334572488 0.169641779790823 38.649390334572487 0.230641779790801 40.684390334572484 0.477641779790815 C69.174390334572479 3.933641779790705 79.623390334572463 13.691641779790814 80.521390334572487 31.037641779790818 C81.316390334572489 46.409641779790817 74.791390334572483 59.688641779790650 61.943390334572484 66.572641779790658 C56.581390334572490 69.445641779790662 45.232390334572486 71.555641779790662 45.232390334572486 71.555641779790662 C45.232390334572486 71.555641779790662 48.955390334572485 89.213641779790734 48.955390334572485 89.213641779790734 C48.955390334572485 89.213641779790734 59.521390334572487 81.931641779790667 63.772390334572492 75.637641779790670 C66.323390334572494 71.859641779790664 72.776390334572497 96.361641779790830 70.221390334572490 102.951641779790830 C68.726390334572486 106.807641779790830 62.075390334572489 111.273641779790840 53.922390334572498 114.299641779790820 C53.922390334572498 114.299641779790820 57.224390334572504 126.924641779790820 57.000390334572501 127.566641779790830 C55.794390334572498 131.023641779790810 49.174390334572507 134.519641779790820 45.886390334572496 133.022641779790830 C45.234390334572495 132.725641779790810 42.607390334572500 117.281641779790820 42.607390334572500 117.281641779790820 C42.607390334572500 117.281641779790820 34.699390334572499 118.035641779790820 31.114390334572498 117.504641779790830 C16.116390334572500 115.283641779790800 -0.440609665427491 104.808641779790660 1.340390334572497 78.919641779790666 C2.283390334572497 65.215641779790658 9.889390334572497 53.826641779790783 19.187390334572498 52.140641779790791 C23.024390334572502 51.444641779790793 26.117390334572498 50.732641779790804 29.533390334572502 50.102641779790808 C29.533390334572502 50.102641779790808 25.984390334572502 32.663641779790822 25.629390334572506 31.596641779790829 C18.175390334572505 33.020641779790836 9.756390334572506 45.288641779790822 8.256390334572505 46.479641779790825 C6.588390334572505 47.804641779790828 -0.705609665427495 18.458641779790824 1.291390334572505 12.670641779790827 C2.161390334572506 10.148641779790822 13.809390334572505 3.907641779790822 18.769390334572506 2.973641779790825 L18.935390334572503 2.936641779790818 C16.847390334572502 -5.776358220209175 15.582390334572501 -11.454358220209173 15.833390334572506 -12.261358220209189 C17.129390334572502 -16.429358220209195 29.006390334572508 -15.652358220209180 31.534390334572507 -14.250358220209193 C32.026390334572483 -13.977358220209169 34.071390334572484 0.268641779790812 34.071390334572484 0.268641779790812 zM41.572390334572482 46.976641779790825 C46.272390334572478 44.746641779790821 49.048390334572488 41.245641779790830 47.833390334572485 34.861641779790830 C46.837390334572490 29.625641779790826 43.234390334572481 28.618641779790835 38.782390334572483 29.672641779790837 L41.572390334572482 46.976641779790825 zM34.817390334572487 74.950641779790672 C30.201390334572487 77.350641779790664 27.928390334572484 80.491641779790712 29.779390334572483 86.719641779790706 C30.979390334572486 90.753641779790712 34.394390334572485 93.197641779790757 38.231390334572481 92.140641779790755 L34.817390334572487 74.950641779790672 zM9.955390334572485 82.680676388169559 C9.955390334572485 82.680676388169559 9.955390334572485 82.680676388169559 9.955390334572485 82.680676388169559 C9.955390334572485 82.680676388169559 9.955390334572485 82.680676388169559 9.955390334572485 82.680676388169559 C9.955390334572485 82.680676388169559 9.955390334572485 82.680676388169559 9.955390334572485 82.680676388169559 z" />
<glyph unicode="%" horiz-adv-x="110.64961328155596" d="M23.428313889157572 117.253069307510710 C36.256313889157568 118.006069307510760 47.321313889157580 107.884069307510670 48.141313889157573 94.643069307510672 C48.961313889157573 81.402069307510672 39.228313889157569 70.058069307510465 26.400313889157566 69.305069307510479 C13.572313889157563 68.552069307510493 2.507313889157564 78.674069307510621 1.687313889157565 91.915069307510635 C0.866313889157574 105.156069307510630 10.600313889157569 116.500069307510730 23.428313889157572 117.253069307510710 zM34.102313889157571 97.024069307510686 C32.009313889157568 103.680069307510680 25.777313889157568 107.724069307510700 20.183313889157574 106.057069307510720 C14.589313889157580 104.390069307510710 11.750313889157576 97.644069307510620 13.843313889157574 90.988069307510614 C15.936313889157571 84.332069307510608 22.168313889157574 80.288069307510511 27.762313889157575 81.955069307510499 C33.357313889157567 83.621069307510510 36.195313889157568 90.368069307510694 34.102313889157571 97.024069307510686 zM83.965313889157571 48.300069307510711 C96.793313889157574 49.053069307510697 107.858313889157570 38.931069307510711 108.678313889157580 25.690069307510711 C109.498313889157590 12.449069307510712 99.765313889157582 1.105069307509680 86.937313889157579 0.351069307509668 C74.109313889157576 -0.402930692490344 63.044313889157579 9.720069307510698 62.224313889157571 22.961069307510698 C61.404313889157564 36.202069307510698 71.137313889157568 47.547069307510725 83.965313889157571 48.300069307510711 zM94.640313889157568 28.070069307510707 C92.547313889157564 34.726069307510713 86.315313889157565 38.770069307510724 80.721313889157571 37.103069307510722 C75.127313889157577 35.436069307510721 72.288313889157564 28.690069307510711 74.381313889157568 22.034069307510705 C76.474313889157571 15.378069307510700 82.706313889157570 11.334069307510397 88.300313889157565 13.001069307510399 C93.894313889157559 14.668069307510400 96.733313889157571 21.415069307510706 94.640313889157568 28.070069307510707 zM9.837313889157571 4.915069307509953 C9.184313889157568 0.279069307509957 21.648313889157567 -0.666930692490212 25.407313889157571 1.989069307509794 C29.166313889157571 4.645069307509800 99.242313889157572 107.390069307510730 99.912313889157559 112.507069307510730 C100.582313889157550 117.624069307510740 90.714313889157552 118.603069307510740 85.380313889157563 115.238069307510730 C80.177313889157574 111.956069307510720 10.651313889157578 10.690069307509944 9.837313889157571 4.915069307509953 zM10.920313889157569 82.358103915889387 C10.920313889157569 82.358103915889387 10.920313889157569 82.358103915889387 10.920313889157569 82.358103915889387 C10.920313889157569 82.358103915889387 10.920313889157569 82.358103915889387 10.920313889157569 82.358103915889387 C10.920313889157569 82.358103915889387 10.920313889157569 82.358103915889387 10.920313889157569 82.358103915889387 z" />
<glyph unicode="&#x26;" horiz-adv-x="88.371984448344506" d="M57.661923172242808 12.151822839569562 C47.220923172242806 1.646822839569566 27.830923172242798 -6.928177160430721 10.570923172242807 7.649822839569303 C-5.480076827757188 21.206822839569313 -2.214076827757193 51.169822839569662 25.699923172242805 68.749822839569674 C13.127923172242813 91.903822839569671 21.047923172242804 119.590822839569900 34.861923172242804 117.414822839569890 C59.365923172242816 113.555822839569880 60.857923172242806 76.252822839569646 46.154923172242810 64.889822839569661 C47.811923172242814 61.451822839569651 55.805923172242814 49.137822839569886 58.103923172242816 47.650822839569877 C61.103923172242816 51.926822839569873 62.111923172242811 56.350822839569744 63.603923172242816 57.207822839569744 C65.095923172242820 58.065822839569748 80.673923172242809 51.596822839569853 81.525923172242813 49.453822839569852 C82.377923172242816 47.310822839569852 76.625923172242807 36.376822839569876 74.281923172242813 30.588822839569879 C79.182923172242809 25.014822839569881 87.279923172242817 21.798822839569873 87.492923172242811 19.226822839569884 C87.687923172242805 16.866822839569885 68.954923172242815 1.646822839568984 66.397923172242812 2.075822839568986 C63.840923172242810 2.503822839568983 60.644923172242812 7.863822839569551 57.661923172242808 12.151822839569562 zM25.103923172242808 28.787822839569877 C29.446923172242805 24.409822839569877 40.091923172242808 27.992822839569875 44.353923172242808 33.566822839569873 C42.222923172242808 35.710822839569879 34.860923172242806 51.812822839569755 32.730923172242811 55.885822839569762 C22.076923172242807 49.025822839569770 17.432923172242809 36.520822839569881 25.103923172242808 28.787822839569877 zM38.270923172242810 106.265822839569860 C27.667923172242809 109.927822839569870 32.730923172242811 84.612822839569645 38.270923172242810 77.323822839569658 C45.728923172242808 80.325822839569639 52.547923172242804 101.335822839569870 38.270923172242810 106.265822839569860 zM10.465923172242810 81.845857447948532 C10.465923172242810 81.845857447948532 10.465923172242810 81.845857447948532 10.465923172242810 81.845857447948532 C10.465923172242810 81.845857447948532 10.465923172242810 81.845857447948532 10.465923172242810 81.845857447948532 C10.465923172242810 81.845857447948532 10.465923172242810 81.845857447948532 10.465923172242810 81.845857447948532 z" />
<glyph unicode="'" horiz-adv-x="31.653035935563821" d="M29.371656753407656 107.375781908302560 C27.632656753407659 114.436781908302560 19.008656753407656 118.667781908302570 11.104656753407657 117.378781908302560 C3.464656753407656 116.131781908302570 0.167656753407655 106.830781908302550 1.666656753407658 100.623781908302560 C3.062656753407658 94.846781908302560 8.800656753407658 89.202781908302455 14.939656753407661 89.681781908302440 C19.586656753407659 90.044781908302440 18.440656753407659 84.750781908302329 14.958656753407659 79.858781908302319 C11.277656753407658 74.687781908302327 5.126656753407659 69.896781908302330 5.827656753407659 70.089781908302328 C26.639656753407653 75.822781908302304 33.010656753407645 92.599781908302560 29.371656753407656 107.375781908302560 zM10.210656753407648 64.125907014243467 C10.210656753407648 64.125907014243467 10.210656753407648 64.125907014243467 10.210656753407648 64.125907014243467 C10.210656753407648 64.125907014243467 10.210656753407648 64.125907014243467 10.210656753407648 64.125907014243467 C10.210656753407648 64.125907014243467 10.210656753407648 64.125907014243467 10.210656753407648 64.125907014243467 z" />
<glyph unicode="(" horiz-adv-x="38.701902037469608" d="M28.446050588945354 -0.132999999999996 C31.446050588945354 -0.799999999999997 38.113050588945356 5.200000000000003 37.779050588945353 8.200000000000003 C37.588050588945350 9.920000000000002 11.446050588945351 25.866000000000000 11.446050588945358 67.534000000000006 C11.446050588945376 105.867000000000000 36.779050588945353 124.201000000000010 37.113050588945356 126.201000000000010 C37.541050588945353 128.769000000000010 31.431050588945354 135.643000000000030 28.780050588945358 135.201000000000020 C26.780050588945358 134.868000000000020 1.447050588945364 107.202000000000010 1.447050588945363 67.868000000000009 C1.446050588945354 25.201000000000008 27.404050588945353 0.099000000000004 28.446050588945354 -0.132999999999996 zM-7.053949411054646 64.125907014243467 C-7.053949411054646 64.125907014243467 -7.053949411054646 64.125907014243467 -7.053949411054646 64.125907014243467 C-7.053949411054646 64.125907014243467 -7.053949411054646 64.125907014243467 -7.053949411054646 64.125907014243467 C-7.053949411054646 64.125907014243467 -7.053949411054646 64.125907014243467 -7.053949411054646 64.125907014243467 z" />
<glyph unicode=")" horiz-adv-x="39.311028500619557" d="M10.464273853779375 -0.132999999999996 C7.464273853779375 -0.799999999999997 0.797273853779373 5.200000000000003 1.131273853779378 8.200000000000003 C1.322273853779381 9.918999999999997 27.464273853779368 25.864999999999995 27.464273853779375 67.533000000000001 C27.464273853779375 105.866000000000000 2.131273853779378 124.200000000000000 1.797273853779375 126.200000000000000 C1.369273853779378 128.768000000000000 7.479273853779375 135.642000000000000 10.130273853779372 135.199999999999990 C12.130273853779372 134.866999999999990 37.463273853779377 107.201000000000010 37.463273853779377 67.867000000000004 C37.464273853779368 25.201000000000008 11.505273853779379 0.099000000000004 10.464273853779375 -0.132999999999996 zM-7.402726146220630 64.125907014243467 C-7.402726146220630 64.125907014243467 -7.402726146220630 64.125907014243467 -7.402726146220630 64.125907014243467 C-7.402726146220630 64.125907014243467 -7.402726146220630 64.125907014243467 -7.402726146220630 64.125907014243467 C-7.402726146220630 64.125907014243467 -7.402726146220630 64.125907014243467 -7.402726146220630 64.125907014243467 z" />
<glyph unicode="*" horiz-adv-x="57.690210656753436" d="M56.405390334572488 87.434866171003776 C56.155390334572488 85.434866171003776 40.508390334572489 82.917866171003681 37.956390334572490 80.551866171003695 C35.404390334572490 78.185866171003681 34.430390334572493 61.718866171003739 33.168390334572493 61.451866171003743 C31.906390334572492 61.184866171003748 24.186390334572494 75.555866171003700 20.921390334572493 76.870866171003698 C17.656390334572492 78.185866171003696 1.897390334572492 74.359866171003688 1.276390334572493 75.522866171003699 C0.655390334572495 76.685866171003696 12.155390334572495 88.435866171003838 12.155390334572495 91.935866171003838 C12.155390334572495 95.435866171003838 3.700390334572496 108.718866171003920 4.802390334572493 110.202866171003920 C5.905390334572495 111.685866171003910 23.773390334572497 104.927866171003930 26.905390334572495 105.935866171003920 C30.036390334572495 106.943866171003920 37.093390334572497 118.443866171003920 38.874390334572496 117.564866171003930 C40.655390334572495 116.685866171003920 39.720390334572492 97.891866171003926 39.720390334572492 97.891866171003926 C39.720390334572492 97.891866171003926 56.655390334572488 89.434866171003776 56.405390334572488 87.434866171003776 zM9.955390334572485 64.125907014243467 C9.955390334572485 64.125907014243467 9.955390334572485 64.125907014243467 9.955390334572485 64.125907014243467 C9.955390334572485 64.125907014243467 9.955390334572485 64.125907014243467 9.955390334572485 64.125907014243467 C9.955390334572485 64.125907014243467 9.955390334572485 64.125907014243467 9.955390334572485 64.125907014243467 z" />
<glyph unicode="+" horiz-adv-x="57.690210656753379" d="M33.199000000000012 8.808918450546457 C31.691000000000010 8.440918450546462 26.163000000000011 8.440918450546462 24.907000000000011 8.930918450546457 C24.337000000000010 9.152918450546451 26.447000000000010 31.443918450546462 26.447000000000010 31.443918450546462 C26.447000000000010 31.443918450546462 2.109000000000009 30.262918450546465 1.933000000000011 30.981918450546459 C1.565000000000012 32.489918450546455 1.565000000000012 38.017918450546460 2.055000000000010 39.273918450546461 C2.285000000000011 39.863918450546464 13.890000000000011 38.131918450546564 26.195000000000007 38.009918450546465 C26.195000000000007 38.009918450546465 23.427000000000007 61.776918450546454 23.901000000000010 62.065918450546455 C24.906000000000013 62.677918450546464 31.187000000000012 62.677918450546464 32.695000000000007 61.943918450546455 C33.397000000000006 61.601918450546457 32.199000000000005 38.094918450546459 32.199000000000005 38.094918450546459 C32.199000000000005 38.094918450546459 54.910000000000011 40.735918450546464 55.188000000000002 40.279918450546461 C55.799999999999997 39.274918450546465 55.799999999999997 32.993918450546460 55.066000000000003 31.485918450546464 C54.737000000000009 30.810918450546467 44.004000000000005 31.489918450546412 32.320000000000007 31.500918450546465 C32.321000000000012 31.499918450546446 33.889000000000017 8.977918450546454 33.199000000000012 8.808918450546457 zM10.465923172242810 64.125907014243467 C10.465923172242810 64.125907014243467 10.465923172242810 64.125907014243467 10.465923172242810 64.125907014243467 C10.465923172242810 64.125907014243467 10.465923172242810 64.125907014243467 10.465923172242810 64.125907014243467 C10.465923172242810 64.125907014243467 10.465923172242810 64.125907014243467 10.465923172242810 64.125907014243467 zM10.465923172242810 64.125907014243467 C10.465923172242810 64.125907014243467 10.465923172242810 64.125907014243467 10.465923172242810 64.125907014243467 C10.465923172242810 64.125907014243467 10.465923172242810 64.125907014243467 10.465923172242810 64.125907014243467 C10.465923172242810 64.125907014243467 10.465923172242810 64.125907014243467 10.465923172242810 64.125907014243467 z" />
<glyph unicode="," horiz-adv-x="31.397769516728658" d="M29.116390334572493 17.780771244178872 C27.377390334572496 24.841771244178865 18.753390334572494 29.072771244178888 10.849390334572494 27.783771244178872 C3.209390334572493 26.536771244178880 -0.087609665427507 17.235771244178878 1.411390334572495 11.028771244178884 C2.807390334572497 5.251771244178897 8.545390334572495 -0.392228755821108 14.684390334572498 0.086771244178877 C19.331390334572497 0.449771244178876 18.185390334572496 -4.844228755821135 14.703390334572497 -9.736228755821131 C11.022390334572496 -14.907228755821123 4.871390334572496 -19.698228755821120 5.572390334572496 -19.505228755821136 C26.384390334572487 -13.772228755821104 32.755390334572482 3.004771244178876 29.116390334572493 17.780771244178872 zM9.955390334572485 64.125907014243467 C9.955390334572485 64.125907014243467 9.955390334572485 64.125907014243467 9.955390334572485 64.125907014243467 C9.955390334572485 64.125907014243467 9.955390334572485 64.125907014243467 9.955390334572485 64.125907014243467 C9.955390334572485 64.125907014243467 9.955390334572485 64.125907014243467 9.955390334572485 64.125907014243467 z" />
<glyph unicode="-" horiz-adv-x="43.14002478314751" d="M7.147459727385353 64.125907014243467 C7.147459727385353 64.125907014243467 7.147459727385353 64.125907014243467 7.147459727385353 64.125907014243467 C7.147459727385353 64.125907014243467 7.147459727385353 64.125907014243467 7.147459727385353 64.125907014243467 C7.147459727385353 64.125907014243467 7.147459727385353 64.125907014243467 7.147459727385353 64.125907014243467 zM7.147459727385353 64.125907014243467 C7.147459727385353 64.125907014243467 7.147459727385353 64.125907014243467 7.147459727385353 64.125907014243467 C7.147459727385353 64.125907014243467 7.147459727385353 64.125907014243467 7.147459727385353 64.125907014243467 C7.147459727385353 64.125907014243467 7.147459727385353 64.125907014243467 7.147459727385353 64.125907014243467 zM1.617459727385353 53.243905538434547 C1.806459727385353 53.885905538434542 12.167459727385353 51.775905538434550 22.307459727385350 51.987905538434525 C31.994459727385347 52.189905538434573 41.479459727385347 54.739905538434556 41.704459727385348 54.248905538434556 C42.166459727385352 53.243905538434561 42.166459727385352 46.962905538434541 41.612459727385350 45.454905538434545 C41.341459727385349 44.717905538434550 31.726459727385347 45.593905538434512 22.030459727385349 45.454905538434545 C11.896459727385349 45.309905538434599 1.666459727385349 44.181905538434570 1.524459727385350 44.951905538434566 C1.247459727385356 46.459905538434576 1.247459727385355 51.987905538434546 1.617459727385353 53.243905538434547 zM7.147459727385353 64.125907014243467 C7.147459727385353 64.125907014243467 7.147459727385353 64.125907014243467 7.147459727385353 64.125907014243467 C7.147459727385353 64.125907014243467 7.147459727385353 64.125907014243467 7.147459727385353 64.125907014243467 C7.147459727385353 64.125907014243467 7.147459727385353 64.125907014243467 7.147459727385353 64.125907014243467 zM7.147459727385353 64.125907014243467 C7.147459727385353 64.125907014243467 7.147459727385353 64.125907014243467 7.147459727385353 64.125907014243467 C7.147459727385353 64.125907014243467 7.147459727385353 64.125907014243467 7.147459727385353 64.125907014243467 C7.147459727385353 64.125907014243467 7.147459727385353 64.125907014243467 7.147459727385353 64.125907014243467 z" />
<glyph unicode="." horiz-adv-x="30.767955113942662" d="M29.313151835933745 18.147921283564372 C27.093151835933746 25.232921283564366 18.732151835933742 29.677921283564409 10.661151835933744 28.360921283564402 C2.860151835933742 27.087921283564420 -0.506848164066254 17.589921283563910 1.024151835933743 11.252921283563907 C2.768151835933743 4.035921283563908 11.211151835933741 -1.764078716436814 18.753151835933743 0.598921283563193 C26.295151835933744 2.961921283563193 31.533151835933744 11.062921283564378 29.313151835933745 18.147921283564372 zM9.133151835933745 64.125907014243467 C9.133151835933745 64.125907014243467 9.133151835933745 64.125907014243467 9.133151835933745 64.125907014243467 C9.133151835933745 64.125907014243467 9.133151835933745 64.125907014243467 9.133151835933745 64.125907014243467 C9.133151835933745 64.125907014243467 9.133151835933745 64.125907014243467 9.133151835933745 64.125907014243467 z" />
<glyph unicode="/" horiz-adv-x="89.853779429987583" d="M1.076857496902047 6.245000000000005 C0.944857496902046 7.147000000000006 23.741857496902053 34.469999999999999 44.219857496902051 62.562000000000012 C63.781857496902049 89.397000000000020 81.045857496902045 117.071000000000010 81.899857496902058 117.401000000000010 C83.648857496902053 118.077000000000010 88.701857496902051 114.347000000000010 88.786857496902059 111.924000000000010 C88.827857496902055 110.739000000000000 68.542857496902059 84.740000000000009 48.910857496902054 57.918000000000006 C28.391857496902048 29.883000000000017 8.467857496902052 1.000000000000000 7.559857496902051 1.066000000000003 C5.781857496902049 1.195999999999998 1.334857496902044 4.479000000000013 1.076857496902047 6.245000000000005 zM9.444857496902046 64.125907014243467 C9.444857496902046 64.125907014243467 9.444857496902046 64.125907014243467 9.444857496902046 64.125907014243467 C9.444857496902046 64.125907014243467 9.444857496902046 64.125907014243467 9.444857496902046 64.125907014243467 C9.444857496902046 64.125907014243467 9.444857496902046 64.125907014243467 9.444857496902046 64.125907014243467 z" />
<glyph unicode="0" horiz-adv-x="94.448574969021081" d="M92.213722428748412 57.786640595408286 C94.564722428748397 26.015640595408286 86.231722428748412 -0.487359404591714 45.443722428748409 0.877640595408280 C18.243722428748413 1.787640595408277 1.172722428748399 28.196640595408290 1.915722428748410 60.334640595408274 C2.564722428748450 88.415640595408277 21.897722428748409 118.273640595408070 44.564722428748411 117.937640595408280 C69.506722428748418 117.567640595407720 89.841722428748412 89.843640595408289 92.213722428748412 57.786640595408286 zM66.422722428748415 62.738640595408285 C64.534722428748410 78.694640595408288 57.025722428748409 90.389640595408295 45.781722428748417 90.877640595408280 C35.032722428748414 91.344640595408293 27.995722428748440 76.962640595408288 27.884722428748418 60.894640595408276 C27.778722428748406 45.437640595408283 35.554722428748420 32.907640595408424 48.525722428748423 32.755640595408281 C61.480722428748408 32.604640595408327 68.306722428748401 46.814640595408278 66.422722428748415 62.738640595408285 zM11.231722428748412 2.870640595408275 C11.231722428748412 2.870640595408275 11.231722428748412 2.870640595408275 11.231722428748412 2.870640595408275 C11.231722428748412 2.870640595408275 11.231722428748412 2.870640595408275 11.231722428748412 2.870640595408275 C11.231722428748412 2.870640595408275 11.231722428748412 2.870640595408275 11.231722428748412 2.870640595408275 z" />
<glyph unicode="1" horiz-adv-x="54.583995522449982" d="M21.988189591078083 117.773999999999970 C18.988189591078083 116.456999999999980 1.321189591078081 89.467999999999975 1.655189591078084 85.846999999999980 C1.988189591078083 82.225999999999971 10.655189591078084 76.959999999999980 16.988189591078083 73.668999999999983 C17.988189591078079 63.465999999999980 13.321189591078081 4.877999999999993 14.988189591078083 2.904000000000004 C16.655189591078084 0.929000000000009 49.655189591078084 0.600000000000001 51.988189591078083 2.574999999999996 C54.321189591078081 4.549999999999990 49.988189591078083 115.799999999999980 48.321189591078081 117.773999999999970 C46.655189591078084 119.748999999999980 24.988189591078083 119.089999999999970 21.988189591078083 117.773999999999970 zM10.721189591078087 64.125907014243467 C10.721189591078087 64.125907014243467 10.721189591078087 64.125907014243467 10.721189591078087 64.125907014243467 C10.721189591078087 64.125907014243467 10.721189591078087 64.125907014243467 10.721189591078087 64.125907014243467 C10.721189591078087 64.125907014243467 10.721189591078087 64.125907014243467 10.721189591078087 64.125907014243467 z" />
<glyph unicode="2" horiz-adv-x="72.142712695144269" d="M23.331722428748407 76.207000000000022 C23.654722428748407 73.607000000000028 4.843722428748407 79.023000000000039 3.664722428748405 82.581000000000046 C1.331722428748407 89.626000000000033 6.664722428748405 117.136000000000190 36.664722428748405 117.472000000000040 C63.996722428748399 117.777999999999810 78.331722428748407 85.936000000000035 63.664722428748405 64.465000000000032 C51.516722428748409 46.681000000000040 42.664722428748412 44.336000000000020 40.331722428748407 32.594000000000030 C47.331722428748407 33.265000000000015 67.998722428748408 32.929000000000023 69.998722428748408 30.917000000000023 C71.998722428748408 28.905000000000022 69.331722428748407 3.407000000000011 67.665722428748410 2.064999999999998 C65.998722428748408 0.722999999999985 2.350722428748412 -0.599999999999994 2.332722428748411 2.399999999999999 C1.998722428748492 58.091000000000001 53.728722428748405 66.366000000000042 41.665722428748410 87.614000000000033 C34.998722428748408 99.356000000000037 21.998722428748412 86.943000000000040 23.331722428748407 76.207000000000022 zM11.231722428748412 64.125907014243467 C11.231722428748412 64.125907014243467 11.231722428748412 64.125907014243467 11.231722428748412 64.125907014243467 C11.231722428748412 64.125907014243467 11.231722428748412 64.125907014243467 11.231722428748412 64.125907014243467 C11.231722428748412 64.125907014243467 11.231722428748412 64.125907014243467 11.231722428748412 64.125907014243467 z" />
<glyph unicode="3" horiz-adv-x="89.9243353924536" d="M25.688988847583587 39.733000000000004 C28.958988847583591 36.167000000000002 35.639988847583588 30.499999999999993 42.638988847583590 29.834000000000003 C51.914988847583587 28.949999999999989 58.863988847583585 36.834000000000003 59.153988847583591 42.084000000000003 C59.556988847583597 49.390000000000001 56.000988847583585 57.833999999999989 42.741988847583592 58.334000000000003 C39.879988847583590 58.442000000000000 36.912988847583591 57.834000000000003 35.322988847583595 58.834000000000003 C33.732988847583599 59.834000000000003 30.232988847583599 71.167000000000002 32.141988847583598 75.501000000000005 C32.895988847583595 77.213000000000008 39.792988847583601 76.635999999999996 41.367988847583597 76.834000000000003 C49.320988847583592 77.833999999999989 52.236988847583604 83.014000000000010 51.272988847583591 88.334000000000003 C50.275988847583591 93.834000000000003 45.821988847583590 97.834000000000003 41.049988847583592 98.167000000000002 C35.931988847583590 98.525000000000006 29.278988847583591 93.167000000000002 27.688988847583587 88.500000000000000 C27.056988847583590 86.645000000000010 8.282988847583590 99.167000000000002 11.175988847583586 103.479000000000000 C16.152988847583586 110.896000000000000 28.121988847583587 118.500000000000000 41.006988847583585 118.500000000000000 C59.735988847583585 118.500000000000000 74.452988847583583 105.999000000000000 74.452988847583583 90.167000000000002 C74.452988847583583 81.326999999999998 69.044988847583582 76.167000000000002 63.317988847583578 72.500000000000000 C79.245988847583575 66.359999999999999 87.986988847583575 50.614999999999995 87.813988847583573 36.832999999999998 C87.495988847583561 11.500000000000000 66.258988847583566 0.500000000000000 41.555988847583571 0.500000000000000 C23.885988847583569 0.500000000000000 8.126988847583567 7.480999999999995 1.481988847583573 18.629999999999995 C-0.627011152416410 22.167000000000002 22.598988847583591 43.102000000000004 25.688988847583587 39.733000000000004 zM11.486988847583575 64.125907014243467 C11.486988847583575 64.125907014243467 11.486988847583575 64.125907014243467 11.486988847583575 64.125907014243467 C11.486988847583575 64.125907014243467 11.486988847583575 64.125907014243467 11.486988847583575 64.125907014243467 C11.486988847583575 64.125907014243467 11.486988847583575 64.125907014243467 11.486988847583575 64.125907014243467 z" />
<glyph unicode="4" horiz-adv-x="88.09657596403224" d="M16.682189591078085 116.930000000000010 C15.156189591078082 116.930000000000010 -0.578810408921914 49.735999999999997 1.710189591078084 46.696999999999996 C3.999189591078084 43.657999999999994 30.682189591078085 45.346000000000018 39.682189591078085 45.684000000000005 C39.015189591078084 35.554000000000009 36.715189591078087 4.954000000000015 38.682189591078085 2.464000000000006 C40.015189591078084 0.776000000000018 70.015189591078084 0.099999999999994 73.015189591078084 2.802000000000000 C75.768189591078084 5.281000000000013 70.682189591078071 27.451000000000001 70.015189591078084 47.035000000000004 C78.015189591078084 47.710000000000008 84.537189591078089 46.021999999999998 85.682189591078085 48.048000000000009 C86.827189591078081 50.074000000000019 82.923189591078085 67.295000000000016 81.015189591078084 68.645000000000024 C79.107189591078082 69.996000000000024 71.348189591078082 67.632000000000019 69.348189591078082 69.320000000000022 C67.682189591078085 84.853000000000009 71.682189591078085 114.567000000000010 68.349189591078087 117.268000000000000 C66.531189591078089 118.741000000000000 48.924189591078090 117.943000000000000 47.016189591078088 116.593000000000000 C45.108189591078087 115.242000000000000 43.683189591078090 83.165000000000006 41.016189591078088 69.658000000000001 C37.016189591078088 68.644999999999996 30.607189591078090 68.644999999999996 27.645189591078086 69.658000000000001 C27.016189591078088 75.398000000000010 39.398189591078086 114.566999999999990 39.016189591078088 116.593000000000000 C38.634189591078083 118.619000000000010 18.208189591078089 116.930000000000010 16.682189591078085 116.930000000000010 zM10.721189591078087 64.125907014243467 C10.721189591078087 64.125907014243467 10.721189591078087 64.125907014243467 10.721189591078087 64.125907014243467 C10.721189591078087 64.125907014243467 10.721189591078087 64.125907014243467 10.721189591078087 64.125907014243467 C10.721189591078087 64.125907014243467 10.721189591078087 64.125907014243467 10.721189591078087 64.125907014243467 z" />
<glyph unicode="5" horiz-adv-x="82.012409999861802" d="M68.178420120414742 116.781000000000010 C65.511420120414741 118.123000000000000 18.845420120414740 118.794000000000000 17.178420120414739 116.781000000000010 C15.511420120414737 114.768000000000000 4.511420120414742 57.737000000000002 6.511420120414741 55.724000000000011 C8.511420120414742 53.711000000000020 52.844420120414739 67.801000000000016 52.511420120414741 42.976000000000006 C52.362420120414740 31.905999999999999 28.511420120414741 25.530999999999999 13.178420120414739 43.647000000000013 C10.575420120414739 46.722000000000016 0.153420120414740 31.345000000000020 1.511420120414737 27.544000000000004 C15.178420120414723 -10.700000000000003 79.511420120414726 -9.357999999999990 80.178420120414742 39.286000000000008 C80.757420120414736 81.553000000000026 52.178420120414742 81.221000000000018 34.511420120414741 79.879000000000019 C35.178420120414742 84.240000000000009 36.178420120414742 88.937000000000012 37.511420120414741 92.963000000000022 C40.178420120414742 93.969000000000023 65.178420120414742 88.602000000000032 67.511420120414741 90.279000000000025 C69.845420120414744 91.956000000000017 70.845420120414744 115.439000000000010 68.178420120414742 116.781000000000010 zM10.853420120414739 64.125907014243467 C10.853420120414739 64.125907014243467 10.853420120414739 64.125907014243467 10.853420120414739 64.125907014243467 C10.853420120414739 64.125907014243467 10.853420120414739 64.125907014243467 10.853420120414739 64.125907014243467 C10.853420120414739 64.125907014243467 10.853420120414739 64.125907014243467 10.853420120414739 64.125907014243467 z" />
<glyph unicode="6" horiz-adv-x="85.787889885435447" d="M66.075255266418736 97.097907014243475 C54.742255266418738 91.823907014243474 43.075255266418736 80.287907014243473 39.075255266418736 70.729907014243480 C56.075255266418736 78.639907014243462 83.408255266418735 71.122907014243481 83.408255266418735 40.076907014243488 C83.409255266418739 14.698907014243474 65.742255266418738 0.195907014243424 42.742255266418738 0.525907014243472 C19.352255266418737 0.860907014243601 3.075255266418735 14.698907014243474 2.075255266418736 41.066907014243469 C0.287255266418738 88.222907014243475 51.075255266418736 117.863907014243470 54.075255266418736 118.192907014243470 C57.075255266418736 118.521907014243470 70.910255266418744 99.347907014243475 66.075255266418736 97.097907014243475 zM31.075255266418736 41.725907014243475 C30.131255266418734 34.024907014243482 37.075255266418736 27.223907014243480 47.408255266418735 29.859907014243475 C55.214255266418732 31.851907014243480 59.001255266418738 42.002907014243476 54.741255266418733 47.987907014243476 C48.409255266418739 56.886907014243477 32.409255266418739 52.602907014243470 31.075255266418736 41.725907014243475 zM11.742255266418738 3.125907014243467 C11.742255266418738 3.125907014243467 11.742255266418738 3.125907014243467 11.742255266418738 3.125907014243467 C11.742255266418738 3.125907014243467 11.742255266418738 3.125907014243467 11.742255266418738 3.125907014243467 C11.742255266418738 3.125907014243467 11.742255266418738 3.125907014243467 11.742255266418738 3.125907014243467 z" />
<glyph unicode="7" horiz-adv-x="85.378288488734711" d="M2.739938281671051 114.294000000000000 C-0.594061718328952 112.000000000000000 7.072938281671052 86.433000000000007 9.405938281671048 84.466000000000008 C11.738938281671047 82.499000000000009 34.405938281671048 89.382999999999967 49.072938281671050 88.399000000000015 C45.739938281671051 56.605000000000004 18.405938281671048 3.505000000000010 20.405938281671048 0.555000000000021 C22.405938281671048 -2.394999999999968 55.405938281671048 -1.411999999999992 57.738938281671047 0.555000000000021 C60.072938281671050 2.522000000000006 86.072938281671043 112.000000000000000 83.072938281671043 114.950000000000000 C80.072938281671043 117.900000000000010 6.072938281671050 116.588000000000010 2.739938281671051 114.294000000000000 zM10.805938281671047 64.125907014243467 C10.805938281671047 64.125907014243467 10.805938281671047 64.125907014243467 10.805938281671047 64.125907014243467 C10.805938281671047 64.125907014243467 10.805938281671047 64.125907014243467 10.805938281671047 64.125907014243467 C10.805938281671047 64.125907014243467 10.805938281671047 64.125907014243467 10.805938281671047 64.125907014243467 z" />
<glyph unicode="8" horiz-adv-x="99.256044922909723" d="M71.530094479991476 72.525907014243472 C88.219094479991469 66.385907014243472 97.378094479991475 50.640907014243467 97.197094479991478 36.858907014243471 C96.863094479991474 11.525907014243472 74.611094479991479 0.525907014243472 48.728094479991469 0.525907014243472 C22.845094479991459 0.525907014243472 2.196094479991462 11.858907014243471 1.863094479991467 36.525907014243472 C1.683094479991469 49.822907014243469 14.005094479991467 64.775907014243472 25.683094479991468 70.670907014243483 C17.030094479991476 76.275907014243472 12.619094479991473 80.968907014243470 12.619094479991475 89.858907014243471 C12.619094479991492 105.690907014243460 28.528094479991474 118.525907014243470 48.152094479991476 118.525907014243470 C67.776094479991485 118.525907014243470 83.197094479991478 106.024907014243470 83.197094479991478 90.192907014243474 C83.197094479991478 81.351907014243466 77.530094479991476 76.192907014243474 71.530094479991476 72.525907014243472 zM67.167094479991476 42.108907014243471 C67.167094479991476 49.426907014243469 59.730094479991479 58.358907014243471 49.970094479991474 58.358907014243471 C40.210094479991469 58.358907014243471 31.826094479991475 49.426907014243469 31.826094479991475 42.108907014243471 C31.826094479991475 34.790907014243473 39.737094479991477 28.858907014243471 49.496094479991484 28.858907014243471 C59.255094479991499 28.858907014243471 67.167094479991476 34.791907014243478 67.167094479991476 42.108907014243471 zM58.908094479991476 88.358907014243471 C58.908094479991476 93.052907014243473 54.190094479991473 98.191907014243469 48.197094479991478 98.191907014243469 C42.204094479991483 98.191907014243469 37.204094479991475 93.052907014243459 37.204094479991475 88.358907014243471 C37.204094479991475 83.664907014243482 41.870094479991479 79.858907014243471 47.863094479991474 79.858907014243471 C53.857094479991474 79.858907014243471 58.908094479991476 83.664907014243482 58.908094479991476 88.358907014243471 zM11.530094479991476 3.125907014243467 C11.530094479991476 3.125907014243467 11.530094479991476 3.125907014243467 11.530094479991476 3.125907014243467 C11.530094479991476 3.125907014243467 11.530094479991476 3.125907014243467 11.530094479991476 3.125907014243467 C11.530094479991476 3.125907014243467 11.530094479991476 3.125907014243467 11.530094479991476 3.125907014243467 z" />
<glyph unicode="9" horiz-adv-x="85.503701349253447" d="M16.016778656089940 1.751907014243471 C25.683778656089942 10.986907014243471 46.349778656089931 29.787907014243473 50.016778656089940 47.268907014243467 C30.683778656089935 36.384907014243481 1.637778656089937 46.544907014243464 1.637778656089942 77.611907014243471 C1.637778656089955 103.008907014243480 19.304778656089944 117.521907014243350 42.304778656089944 117.191907014243470 C65.694778656089937 116.856907014243350 81.332778656089943 102.977907014243470 82.971778656089953 76.622907014243467 C85.349778656089924 38.362907014243468 65.349778656089939 14.614907014243471 54.682778656089937 1.091907014243475 C52.825778656089938 -1.263092985756515 13.011778656089938 -1.119092985756538 16.016778656089940 1.751907014243471 zM51.970778656089934 80.909907014243473 C52.914778656089936 88.616907014243480 45.970778656089934 95.422907014243464 35.637778656089935 92.783907014243482 C27.830778656089933 90.790907014243473 24.044778656089932 80.631907014243467 28.304778656089937 74.642907014243477 C34.636778656089938 65.737907014243476 50.636778656089945 70.024907014243468 51.970778656089934 80.909907014243473 zM11.349778656089939 2.125907014243467 C11.349778656089939 2.125907014243467 11.349778656089939 2.125907014243467 11.349778656089939 2.125907014243467 C11.349778656089939 2.125907014243467 11.349778656089939 2.125907014243467 11.349778656089939 2.125907014243467 C11.349778656089939 2.125907014243467 11.349778656089939 2.125907014243467 11.349778656089939 2.125907014243467 z" />
<glyph unicode=":" horiz-adv-x="32.087957140817139" d="M19.582421668209850 36.162999999999997 C12.040421668209849 33.799999999999997 3.597421668209851 39.599999999999994 1.853421668209851 46.816999999999993 C0.322421668209854 53.153999999999996 3.689421668209848 62.651999999999994 11.490421668209850 63.924999999999983 C19.561421668209846 65.241999999999990 27.922421668209854 60.796999999999997 30.142421668209852 53.712000000000003 C32.361421668209857 46.625999999999991 27.124421668209852 38.525999999999989 19.582421668209850 36.162999999999997 zM30.161267736303557 18.132115980902711 C27.941267736303558 25.217115980902705 19.580267736303554 29.662115980902747 11.509267736303556 28.345115980902740 C3.708267736303554 27.072115980902758 0.341267736303559 17.574115980902249 1.872267736303556 11.237115980902246 C3.616267736303556 4.020115980902247 12.059267736303553 -1.779884019098475 19.601267736303555 0.583115980901532 C27.143267736303557 2.946115980901531 32.381267736303556 11.047115980902717 30.161267736303557 18.132115980902711 zM10.113267736303555 82.754150589281608 C10.113267736303555 82.754150589281608 10.113267736303555 82.754150589281608 10.113267736303555 82.754150589281608 C10.113267736303555 82.754150589281608 10.113267736303555 82.754150589281608 10.113267736303555 82.754150589281608 C10.113267736303555 82.754150589281608 10.113267736303555 82.754150589281608 10.113267736303555 82.754150589281608 z" />
<glyph unicode=";" horiz-adv-x="31.60277405416366" d="M5.859360253912172 -19.626302803617108 C5.162360253912173 -19.818302803617115 11.285360253912170 -15.049302803617110 14.950360253912173 -9.901302803617114 C18.417360253912172 -5.031302803617109 19.557360253912172 0.238697196382894 14.931360253912175 -0.122302803617117 C8.819360253912173 -0.599302803617121 3.107360253912175 5.019697196382879 1.717360253912176 10.770697196382883 C0.224360253912177 16.949697196382886 3.507360253912175 26.209697196382876 11.113360253912177 27.450697196382890 C18.982360253912177 28.734697196382889 27.567360253912177 24.521697196382888 29.298360253912179 17.492697196382892 C32.920360253912172 2.783697196382889 26.577360253912175 -13.918302803617109 5.859360253912172 -19.626302803617108 zM29.509360253912170 52.164697196382413 C27.345360253912169 59.072697196382414 19.193360253912168 63.406697196382453 11.324360253912172 62.122697196382454 C3.719360253912171 60.881697196382454 0.436360253912170 51.621697196382513 1.928360253912171 45.442697196382511 C3.628360253912170 38.405697196382505 11.860360253912170 32.751697196382793 19.214360253912176 35.055697196382795 C26.568360253912182 37.359697196382797 31.674360253912166 45.256697196382412 29.509360253912170 52.164697196382413 zM10.365360253912172 81.270731804761340 C10.365360253912172 81.270731804761340 10.365360253912172 81.270731804761340 10.365360253912172 81.270731804761340 C10.365360253912172 81.270731804761340 10.365360253912172 81.270731804761340 10.365360253912172 81.270731804761340 C10.365360253912172 81.270731804761340 10.365360253912172 81.270731804761340 10.365360253912172 81.270731804761340 z" />
<glyph unicode="&#x3c;" horiz-adv-x="47.2667136533031" d="M42.481594394770639 0.075339782262489 C44.514594394770640 -0.218660217737522 46.374594394770632 3.613339782262493 46.148594394770640 4.937339782262477 C46.019594394770643 5.696339782262477 9.815594394770638 30.437339782262477 9.815594394770638 30.437339782262477 C9.815594394770638 30.437339782262477 46.256594394770637 53.388339782262491 46.482594394770629 54.270339782262496 C46.772594394770636 55.403339782262492 44.504594394770628 59.976339782262492 42.708594394770628 59.781339782262485 C41.353594394770631 59.634339782262479 1.149594394770634 30.369339782262465 1.149594394770634 30.369339782262465 C1.149594394770634 30.369339782262465 41.775594394770643 0.177339782262493 42.481594394770639 0.075339782262489 zM9.349594394770634 64.125907014243467 C9.349594394770634 64.125907014243467 9.349594394770634 64.125907014243467 9.349594394770634 64.125907014243467 C9.349594394770634 64.125907014243467 9.349594394770634 64.125907014243467 9.349594394770634 64.125907014243467 C9.349594394770634 64.125907014243467 9.349594394770634 64.125907014243467 9.349594394770634 64.125907014243467 z" />
<glyph unicode="=" horiz-adv-x="58.379053173210195" d="M2.560139992537314 32.481335000898497 C2.810139992537314 33.123335000898493 16.544139992537268 31.013335000898451 29.984139992537266 31.225335000898497 C42.823139992537264 31.427335000898658 55.395139992537473 33.977335000898492 55.694139992537465 33.486335000898492 C56.306139992537460 32.481335000898497 56.306139992537460 26.200335000898491 55.572139992537466 24.692335000898495 C55.213139992537471 23.955335000898501 42.468139992537260 24.831335000898342 29.617139992537261 24.692335000898495 C16.185139992537259 24.547335000898684 2.626139992537308 23.419335000898499 2.438139992537309 24.189335000898495 C2.070139992537314 25.697335000898505 2.070139992537316 31.225335000898497 2.560139992537314 32.481335000898497 zM11.170139992537315 64.125907014243467 C11.170139992537315 64.125907014243467 11.170139992537315 64.125907014243467 11.170139992537315 64.125907014243467 C11.170139992537315 64.125907014243467 11.170139992537315 64.125907014243467 11.170139992537315 64.125907014243467 C11.170139992537315 64.125907014243467 11.170139992537315 64.125907014243467 11.170139992537315 64.125907014243467 zM2.724139992537324 53.181335000898414 C2.974139992537324 53.823335000898410 16.708139992537326 51.713335000898390 30.148139992537324 51.925335000898436 C42.987139992537323 52.127335000898597 55.559139992537325 54.677335000898395 55.858139992537318 54.186335000898396 C56.470139992537312 53.181335000898400 56.470139992537312 46.900335000898494 55.736139992537318 45.392335000898498 C55.377139992537323 44.655335000898503 42.632139992537319 45.531335000898338 29.781139992537319 45.392335000898498 C16.349139992537317 45.247335000898687 2.790139992537320 44.119335000898502 2.602139992537321 44.889335000898498 C2.234139992537326 46.397335000898508 2.234139992537326 51.925335000898414 2.724139992537324 53.181335000898414 zM11.170139992537315 64.125907014243467 C11.170139992537315 64.125907014243467 11.170139992537315 64.125907014243467 11.170139992537315 64.125907014243467 C11.170139992537315 64.125907014243467 11.170139992537315 64.125907014243467 11.170139992537315 64.125907014243467 C11.170139992537315 64.125907014243467 11.170139992537315 64.125907014243467 11.170139992537315 64.125907014243467 zM11.170139992537315 64.125907014243467 C11.170139992537315 64.125907014243467 11.170139992537315 64.125907014243467 11.170139992537315 64.125907014243467 C11.170139992537315 64.125907014243467 11.170139992537315 64.125907014243467 11.170139992537315 64.125907014243467 C11.170139992537315 64.125907014243467 11.170139992537315 64.125907014243467 11.170139992537315 64.125907014243467 z" />
<glyph unicode="&#x3e;" horiz-adv-x="48.158538439214453" d="M5.379744355845400 0.016103046357230 C3.346744355845399 -0.277896953642781 1.486744355845399 3.554103046357241 1.712744355845402 4.878103046357225 C1.841744355845403 5.637103046357225 38.045744355845400 30.378103046357225 38.045744355845400 30.378103046357225 C38.045744355845400 30.378103046357225 1.604744355845400 53.329103046357289 1.378744355845399 54.212103046357285 C1.088744355845400 55.345103046357281 3.356744355845400 59.918103046357281 5.152744355845400 59.723103046357267 C6.507744355845400 59.576103046357261 46.711744355845397 30.311103046357218 46.711744355845397 30.311103046357218 C46.711744355845397 30.311103046357218 6.085744355845399 0.118103046357234 5.379744355845400 0.016103046357230 zM9.511744355845394 64.125907014243467 C9.511744355845394 64.125907014243467 9.511744355845394 64.125907014243467 9.511744355845394 64.125907014243467 C9.511744355845394 64.125907014243467 9.511744355845394 64.125907014243467 9.511744355845394 64.125907014243467 C9.511744355845394 64.125907014243467 9.511744355845394 64.125907014243467 9.511744355845394 64.125907014243467 z" />
<glyph unicode="?" horiz-adv-x="73.291782405807908" d="M14.034090891502267 77.250654314166923 C13.034090891502265 74.509654314166923 1.174090891502265 92.485654314167135 1.924090891502267 96.597654314167130 C7.277090891502271 125.944654314167140 64.879090891502273 122.506654314167150 69.674090891502260 99.064654314167143 C75.674090891502232 69.733654314167140 55.784090891502260 72.316654314167053 46.784090891502260 54.772654314167056 C43.604090891502260 48.574654314167049 46.434090891502258 39.816654314167145 45.674090891502260 39.122654314167143 C43.674090891502260 37.295654314167145 24.847090891502262 36.374654314167138 22.674090891502260 38.757654314167148 C21.935090891502263 39.567654314167150 18.314090891502261 45.768654314167051 19.424090891502260 54.382654314167056 C20.513090891502266 62.836654314167049 43.062090891502265 76.438654314166968 42.174090891502260 85.084654314166968 C40.174090891502267 104.546654314166970 21.219090891502269 96.946654314166921 14.034090891502267 77.250654314166923 zM49.878090891502268 18.107654314167156 C47.684090891502265 25.108654314167161 39.423090891502270 29.500654314167157 31.449090891502266 28.198654314167150 C23.741090891502267 26.940654314167155 20.414090891502269 17.556654314166771 21.927090891502267 11.294654314166770 C23.650090891502266 4.163654314166756 31.993090891502270 -1.567345685833843 39.445090891502268 0.767654314166165 C46.897090891502266 3.102654314166173 52.071090891502266 11.106654314167152 49.878090891502268 18.107654314167156 zM10.943090891502266 82.093688922545809 C10.943090891502266 82.093688922545809 10.943090891502266 82.093688922545809 10.943090891502266 82.093688922545809 C10.943090891502266 82.093688922545809 10.943090891502266 82.093688922545809 10.943090891502266 82.093688922545809 C10.943090891502266 82.093688922545809 10.943090891502266 82.093688922545809 10.943090891502266 82.093688922545809 z" />
<glyph unicode="@" horiz-adv-x="80.264230732024089" d="M69.875127057392760 32.593250656998038 C71.374127057392755 47.400250656998040 58.703127057392763 62.571250656997755 41.743127057392755 62.984250656997801 C27.255127057392755 63.337250656997789 11.001127057392779 52.383250656998058 10.373127057392754 29.989250656998053 C9.695127057392748 5.813250656998065 38.210127057392754 -5.920749343001930 53.758127057392755 2.913250656998073 C56.065127057392758 4.224250656998080 66.655127057392761 2.155250656998078 63.652127057392761 -0.266749343001919 C41.056127057392750 -18.490749343001909 1.988127057392752 -3.118749343001952 2.088127057392761 29.989250656998053 C2.168127057392761 56.270250656998059 21.291127057392757 71.412250656998054 41.254127057392758 71.271250656997836 C64.005127057392755 71.111250656997015 79.202127057392758 53.873250656998053 78.846127057392749 31.181250656998046 C78.677127057392752 20.389250656998044 72.135127057392751 10.277250656998056 61.967127057392744 9.905250656998049 C55.099127057392749 9.654250656998094 51.422127057392743 12.508250656998044 49.916127057392742 16.599250656998052 C43.137127057392739 3.582250656998042 13.384127057392742 7.548250656998022 18.118127057392741 33.066250656998022 C21.672127057392746 52.225250656998014 39.710127057392739 52.999250656997731 46.662127057392738 45.171250656997742 C46.816127057392734 46.847250656997744 47.010127057392737 48.919250656997747 47.279127057392742 49.132250656997741 C48.050127057392743 49.741250656997735 61.471127057392749 49.437250656997747 62.242127057392736 48.370250656997740 C62.580127057392730 47.903250656997741 59.201127057392739 41.305250656998048 59.614127057392736 32.326250656998049 C59.991127057392731 24.144250656998047 61.596127057392735 22.125250656998048 64.602127057392735 22.549250656998055 C67.239127057392750 22.924250656998055 69.499127057392755 28.874250656998043 69.875127057392760 32.593250656998038 zM38.878127057392753 34.920250656997965 C36.639127057392756 35.614250656997967 34.121127057392755 33.965250656998052 33.254127057392751 31.237250656998043 C32.387127057392746 28.509250656998034 33.499127057392748 25.735250656998048 35.738127057392752 25.041250656998045 C37.977127057392750 24.347250656998042 40.495127057392750 25.996250656998043 41.362127057392755 28.724250656998038 C42.229127057392759 31.452250656998032 41.117127057392757 34.226250656997976 38.878127057392753 34.920250656997965 zM10.746127057392755 0.673250656998079 C10.746127057392755 0.673250656998079 10.746127057392755 0.673250656998079 10.746127057392755 0.673250656998079 C10.746127057392755 0.673250656998079 10.746127057392755 0.673250656998079 10.746127057392755 0.673250656998079 C10.746127057392755 0.673250656998079 10.746127057392755 0.673250656998079 10.746127057392755 0.673250656998079 z" />
<glyph unicode="A" horiz-adv-x="94.82099012819981" d="M11.081376708447806 64.125907014243467 C11.081376708447806 64.125907014243467 11.081376708447806 64.125907014243467 11.081376708447806 64.125907014243467 C11.081376708447806 64.125907014243467 11.081376708447806 64.125907014243467 11.081376708447806 64.125907014243467 C11.081376708447806 64.125907014243467 11.081376708447806 64.125907014243467 11.081376708447806 64.125907014243467 zM1.703376708447806 1.319000000000017 C0.481376708447804 3.738000000000028 32.914376708447804 114.556000000000810 34.336376708447816 116.158000000000810 C35.758376708447813 117.759000000000810 59.254376708447808 117.422000000000820 60.960376708447811 116.507000000000830 C62.666376708447814 115.592000000000810 93.987376708447798 3.482000000000021 93.134376708447789 1.652000000000037 C92.281376708447780 -0.177999999999940 64.538376708447800 0.306000000000033 63.258376708447798 1.678000000000047 C61.978376708447797 3.051000000000038 55.154376708447799 35.535000000000736 55.012376708447803 35.763000000000744 C53.875376708447803 36.221000000000743 39.800376708447800 36.907000000000764 38.378376708447803 35.305000000000760 C38.378376708447803 35.305000000000760 31.838376708447800 3.278000000000070 30.559376708447797 1.677000000000071 C29.280376708447793 0.076000000000064 2.926376708447805 -1.099999999999994 1.703376708447806 1.319000000000017 zM53.181376708447800 47.201000000000050 C52.328376708447806 52.005000000000052 48.916376708447800 67.789999999999992 47.210376708447797 80.599999999999994 C45.077376708447794 67.789000000000001 41.381376708447803 50.403000000000063 40.670376708447805 46.515000000000072 C41.949376708447801 46.057000000000073 51.901376708447799 46.515000000000057 53.181376708447800 47.201000000000050 zM11.081376708447806 64.125907014243467 C11.081376708447806 64.125907014243467 11.081376708447806 64.125907014243467 11.081376708447806 64.125907014243467 C11.081376708447806 64.125907014243467 11.081376708447806 64.125907014243467 11.081376708447806 64.125907014243467 C11.081376708447806 64.125907014243467 11.081376708447806 64.125907014243467 11.081376708447806 64.125907014243467 z" />
<glyph unicode="B" horiz-adv-x="84.11782590069231" d="M37.897168990662422 117.361803434630560 C59.435168990662426 116.882803434630520 74.211168990662429 110.109803434630990 73.793168990662423 92.712803434630985 C73.491168990662430 80.106803434630990 64.491168990662430 74.106803434630891 57.741168990662423 72.106803434630891 C64.241168990662430 70.106803434630891 81.212168990662420 62.560803434630699 81.613168990662416 37.497803434630683 C82.014168990662412 12.434803434630666 64.221168990662420 0.578803434631311 38.376168990662421 0.099803434631411 C12.531168990662415 -0.379196565368503 7.266168990662420 0.338803434631288 4.873168990662419 2.731803434631289 C2.480168990662419 5.124803434631289 0.805168990662423 112.095803434630570 3.916168990662422 114.249803434630560 C7.027168990662425 116.403803434630560 12.058168990662423 117.936803434630780 37.897168990662422 117.361803434630560 zM34.155168990662425 96.286803434631082 C33.905168990662425 94.786803434631082 34.155168990662425 87.536803434631054 34.405168990662425 85.786803434631054 C35.988168990662423 85.536803434631054 41.630168990662426 86.534803434631087 41.322168990662426 90.703803434631084 C40.988168990662423 95.203803434631084 35.988168990662423 96.203803434631084 34.155168990662425 96.286803434631082 zM35.705168990662422 56.503803434631081 C35.705168990662422 53.003803434631081 36.455168990662422 28.503803434630662 36.955168990662422 25.253803434630662 C39.038168990662420 24.836803434630660 52.573168990662424 25.520803434630821 51.872168990662431 38.920803434630827 C51.038168990662427 54.837803434630828 38.371168990662419 57.170803434631082 35.705168990662422 56.503803434631081 zM13.805168990662423 64.125907014243467 C13.805168990662423 64.125907014243467 13.805168990662423 64.125907014243467 13.805168990662423 64.125907014243467 C13.805168990662423 64.125907014243467 13.805168990662423 64.125907014243467 13.805168990662423 64.125907014243467 C13.805168990662423 64.125907014243467 13.805168990662423 64.125907014243467 13.805168990662423 64.125907014243467 z" />
<glyph unicode="C" horiz-adv-x="84.581473445640654" d="M80.873736722820269 91.342907014243465 C82.217736722820263 86.140907014243467 62.080736722820262 81.973907014243466 61.123736722820269 85.025907014243472 C54.623736722820269 105.745907014243470 29.336736722820316 95.825907014243484 32.123736722820269 62.789907014243468 C34.873736722820269 30.192907014243474 54.873736722820269 29.434907014243464 58.873736722820269 36.257907014243472 C60.544736722820275 39.107907014243466 83.644736722820269 30.710907014243475 82.380736722820274 27.444907014243469 C64.373736722820240 -19.081092985756527 2.123736722820256 -4.930092985756517 2.123736722820269 64.558907014243459 C2.123736722820322 121.412907014243470 69.123736722820283 136.826907014243460 80.873736722820269 91.342907014243465 zM11.290736722820270 64.125907014243467 C11.290736722820270 64.125907014243467 11.290736722820270 64.125907014243467 11.290736722820270 64.125907014243467 C11.290736722820270 64.125907014243467 11.290736722820270 64.125907014243467 11.290736722820270 64.125907014243467 C11.290736722820270 64.125907014243467 11.290736722820270 64.125907014243467 11.290736722820270 64.125907014243467 z" />
<glyph unicode="D" horiz-adv-x="91.835150610595974" d="M89.545456599549482 59.863000000000270 C94.260456599549485 15.288000000000267 57.247456599549480 -7.700000000000003 3.855456599549484 0.869000000000014 C1.508456599549483 1.246000000000024 1.843456599549484 116.475000000000010 4.185456599549482 116.879000000000020 C57.576456599549473 126.108000000000030 85.920456599549482 94.139000000000266 89.545456599549482 59.863000000000270 zM33.590456599549476 90.578463047567908 C33.260456599549478 85.305463047567898 35.897456599549479 41.142463047567688 37.215456599549476 33.232463047567691 C49.409456599549479 30.925463047567682 65.821456599549492 46.487463047567871 61.274456599549481 66.190463047567874 C57.319456599549483 83.327463047567861 41.170456599549475 91.237463047567900 33.590456599549476 90.578463047567908 zM11.860456599549480 64.125907014243467 C11.860456599549480 64.125907014243467 11.860456599549480 64.125907014243467 11.860456599549480 64.125907014243467 C11.860456599549480 64.125907014243467 11.860456599549480 64.125907014243467 11.860456599549480 64.125907014243467 C11.860456599549480 64.125907014243467 11.860456599549480 64.125907014243467 11.860456599549480 64.125907014243467 z" />
<glyph unicode="E" horiz-adv-x="76.794474924337692" d="M3.768313884551041 115.455129540314090 C1.202313884551039 112.150129540314080 2.164313884551042 1.088129540314043 4.089313884551043 0.096129540314053 C6.014313884551044 -0.895870459685938 71.775313884551053 -1.886870459685937 74.021313884551049 0.427129540314056 C76.267313884551044 2.741129540314049 72.096313884551051 33.812129540314061 69.851313884551047 35.795129540314065 C67.605313884551052 37.778129540314069 40.018313884551048 29.515129540314064 37.131313884551048 29.515129540314064 C36.169313884551045 32.820129540314070 34.565313884551045 54.636129540314059 34.565313884551045 54.636129540314059 C34.565313884551045 54.636129540314059 49.321313884551046 52.653129540314055 50.925313884551045 54.967129540314062 C52.529313884551044 57.281129540314069 51.567313884551041 70.502129540314058 50.283313884551049 72.155129540314064 C49.000313884551048 73.808129540314056 33.281313884551054 72.155129540314064 33.281313884551054 72.155129540314064 C33.281313884551054 72.155129540314064 31.998313884551049 86.038129540314060 31.677313884551054 90.996129540314058 C36.489313884551052 90.004129540314068 66.643313884551063 83.724129540314067 68.568313884551046 84.716129540314057 C70.493313884551029 85.708129540314062 72.417313884551049 114.465129540314070 70.814313884551041 116.117129540314070 C69.211313884551032 117.769129540314070 6.334313884551040 118.761129540314090 3.768313884551041 115.455129540314090 zM12.667313884551049 64.125907014243467 C12.667313884551049 64.125907014243467 12.667313884551049 64.125907014243467 12.667313884551049 64.125907014243467 C12.667313884551049 64.125907014243467 12.667313884551049 64.125907014243467 12.667313884551049 64.125907014243467 C12.667313884551049 64.125907014243467 12.667313884551049 64.125907014243467 12.667313884551049 64.125907014243467 z" />
<glyph unicode="F" horiz-adv-x="72.809132912296263" d="M3.373360493451767 115.408034696406650 C0.807360493451768 112.110034696406640 1.769360493451767 1.284034696405669 3.694360493451768 0.294034696405660 C5.619360493451769 -0.695965303594349 41.855360493451769 -1.803965303594339 44.101360493451764 0.505034696405687 C46.347360493451760 2.814034696405713 37.101360493451764 54.743034696406568 37.101360493451764 54.743034696406568 C37.101360493451764 54.743034696406568 48.925360493451763 52.738034696406572 50.529360493451762 55.047034696406570 C52.133360493451761 57.356034696406567 51.171360493451758 70.549034696406437 49.887360493451766 72.199034696406443 C48.604360493451765 73.848034696406444 34.100360493451767 72.223034696406444 34.100360493451767 72.223034696406444 C34.100360493451767 72.223034696406444 31.602360493451769 86.052034696406579 31.281360493451764 91.000034696406573 C36.093360493451762 90.010034696406578 66.247360493451765 83.744034696406487 68.172360493451762 84.733034696406492 C70.097360493451760 85.723034696406486 72.021360493451766 114.418034696406660 70.418360493451758 116.068034696406670 C68.813360493451768 117.717034696406660 5.939360493451767 118.706034696406650 3.373360493451767 115.408034696406650 zM11.521360493451766 64.125907014243467 C11.521360493451766 64.125907014243467 11.521360493451766 64.125907014243467 11.521360493451766 64.125907014243467 C11.521360493451766 64.125907014243467 11.521360493451766 64.125907014243467 11.521360493451766 64.125907014243467 C11.521360493451766 64.125907014243467 11.521360493451766 64.125907014243467 11.521360493451766 64.125907014243467 z" />
<glyph unicode="G" horiz-adv-x="92.243059106424653" d="M89.173987230690472 63.548483842585554 C97.683987230690491 1.106483842585547 52.315987230690460 -12.591516157414773 23.350987230690478 8.439483842585204 C23.100987230690478 8.620483842585202 22.852987230690481 8.804483842585242 22.604987230690476 8.990483842585249 C5.375987230690470 21.932483842585256 -3.603012769309533 48.206483842585548 5.392987230690476 77.919483842585535 C22.857987230690519 135.602483842585540 87.426987230690472 126.460483842585560 87.628987230690470 82.367483842585557 C87.652987230690471 77.048483842585554 66.655987230690471 78.298483842585540 66.565987230690467 81.464483842585537 C65.961987230690468 102.962483842585560 32.110987230690476 105.304483842585570 33.129987230690467 61.568483842585572 C34.017987230690451 23.439483842585567 68.494987230690469 21.463483842585752 68.684987230690467 45.439483842585751 C68.684987230690467 45.439483842585751 53.951987230690463 43.469483842585753 52.396987230690470 45.302483842585751 C50.825987230690473 47.152483842585745 48.112987230690464 65.949483842585522 50.440987230690467 66.319483842585527 C55.888987230690475 67.185483842585541 88.518987230690470 68.357483842585552 89.173987230690472 63.548483842585554 zM11.683987230690491 64.125907014243467 C11.683987230690491 64.125907014243467 11.683987230690491 64.125907014243467 11.683987230690491 64.125907014243467 C11.683987230690491 64.125907014243467 11.683987230690491 64.125907014243467 11.683987230690491 64.125907014243467 C11.683987230690491 64.125907014243467 11.683987230690491 64.125907014243467 11.683987230690491 64.125907014243467 z" />
<glyph unicode="H" horiz-adv-x="90.896454351561374" d="M45.307303598162818 62.347950433705044 C42.806303598162820 62.347950433705044 39.357303598162815 62.678950433705047 39.357303598162815 62.678950433705047 C39.357303598162815 62.678950433705047 38.696303598162821 114.260950433705230 37.474303598162820 115.512950433705240 C34.889303598162819 118.162950433705250 12.541303598162823 118.493950433705240 8.807303598162822 115.843950433705230 C5.073303598162818 113.193950433705240 -0.157696401837178 3.549950433704275 2.140303598162820 1.231950433704292 C4.438303598162818 -1.086049566295685 35.796303598162815 -1.418049566295736 37.807303598162818 0.900950433704288 C38.646303598162817 1.868950433704278 39.177303598162823 21.522950433705269 39.323303598162816 44.293950433705270 C39.323303598162816 44.293950433705270 42.285303598162820 44.813950433705273 44.890303598162816 44.957950433705271 C46.244303598162816 45.032950433705281 51.024303598162817 44.291950433705274 51.024303598162817 44.291950433705274 C51.024303598162817 44.291950433705274 52.179303598162818 1.208950433704239 53.140303598162816 0.238950433704268 C55.438303598162818 -2.080049566295728 86.796303598162837 -1.086049566295657 88.807303598162832 1.232950433704325 C90.818303598162828 3.551950433704313 82.725303598162839 113.526950433705240 80.140303598162831 116.176950433705240 C77.555303598162823 118.826950433705240 56.874303598162825 118.826950433705240 53.140303598162816 116.176950433705240 C51.379303598162821 114.926950433705240 50.768303598162817 89.595950433705042 50.855303598162820 62.926950433705045 C50.855303598162820 62.925950433705040 46.974303598162820 62.347950433705044 45.307303598162818 62.347950433705044 zM11.718303598162834 64.125907014243467 C11.718303598162834 64.125907014243467 11.718303598162834 64.125907014243467 11.718303598162834 64.125907014243467 C11.718303598162834 64.125907014243467 11.718303598162834 64.125907014243467 11.718303598162834 64.125907014243467 C11.718303598162834 64.125907014243467 11.718303598162834 64.125907014243467 11.718303598162834 64.125907014243467 zM11.718303598162834 64.125907014243467 C11.718303598162834 64.125907014243467 11.718303598162834 64.125907014243467 11.718303598162834 64.125907014243467 C11.718303598162834 64.125907014243467 11.718303598162834 64.125907014243467 11.718303598162834 64.125907014243467 C11.718303598162834 64.125907014243467 11.718303598162834 64.125907014243467 11.718303598162834 64.125907014243467 z" />
<glyph unicode="I" horiz-adv-x="69.743485210725908" d="M6.784689487431055 114.895624535316190 C9.208689487431055 117.228624535316190 59.805689487431053 119.228624535316190 61.926689487431048 115.895624535316190 C64.047689487431043 112.562624535316190 64.653689487431052 92.228624535316101 62.835689487431054 90.895624535316102 C61.017689487431042 89.561624535316099 46.171689487431053 91.228624535316101 46.171689487431053 91.228624535316101 C46.171689487431053 91.228624535316101 45.987689487431055 72.882624535316012 46.474689487431050 59.228624535316015 C47.080689487431044 42.228624535316015 49.201689487431040 29.228624535316179 49.201689487431040 29.228624535316179 C49.201689487431040 29.228624535316179 63.744689487431032 31.895624535316180 65.865689487431041 29.561624535316177 C67.986689487431036 27.228624535316179 68.289689487431048 2.894624535315245 66.168689487431038 0.561624535315246 C64.047689487431029 -1.771375464684752 5.270689487431042 -1.438375464684754 3.149689487431047 0.561624535315246 C1.028689487431052 2.561624535315247 1.028689487431056 27.228624535316179 3.754689487431054 28.895624535316180 C6.481689487431055 30.562624535316182 18.600689487431055 27.895624535316180 18.600689487431055 27.895624535316180 C18.600689487431055 27.895624535316180 20.441689487431049 42.573624535316000 21.024689487431054 60.228624535316008 C21.630689487431056 78.561624535316000 21.327689487431051 89.895624535316074 21.327689487431051 89.895624535316074 C21.327689487431051 89.895624535316074 7.164689487431048 86.935624535316094 4.966689487431050 90.562624535316090 C3.149689487431052 93.561624535316085 4.360689487431054 112.561624535316180 6.784689487431055 114.895624535316190 zM11.528689487431052 64.125907014243467 C11.528689487431052 64.125907014243467 11.528689487431052 64.125907014243467 11.528689487431052 64.125907014243467 C11.528689487431052 64.125907014243467 11.528689487431052 64.125907014243467 11.528689487431052 64.125907014243467 C11.528689487431052 64.125907014243467 11.528689487431052 64.125907014243467 11.528689487431052 64.125907014243467 z" />
<glyph unicode="J" horiz-adv-x="75.883648189862811" d="M64.615901959158549 91.349950433705175 C67.508901959158550 72.468950433705174 69.955901959158552 47.791950433705274 67.572901959158543 36.115950433705272 C62.225901959158556 9.921950433705277 47.361901959158544 -2.280049566295702 25.497901959158547 0.400950433704260 C4.045901959158543 3.030950433704270 0.500901959158547 29.554950433705251 1.712901959158545 34.837950433705252 C2.924901959158545 40.120950433705254 22.864901959158551 45.821950433705247 25.712901959158550 44.650950433705255 C28.560901959158549 43.478950433705258 19.311901959158551 19.980950433705246 31.936901959158551 22.977950433705253 C44.595901959158553 25.982950433705241 38.716901959158541 64.298950433705144 34.272901959158546 91.012950433705143 C34.272901959158546 91.012950433705143 8.636901959158552 87.396950433705115 7.769901959158551 88.276950433705110 C5.769901959158551 90.306950433705111 4.130901959158551 113.192950433705250 6.769901959158551 114.330950433705250 C20.102901959158551 120.082950433705250 65.769901959158545 117.375950433705240 70.769901959158545 113.992950433705250 C73.326901959158548 112.262950433705240 75.769901959158545 93.013950433705148 74.102901959158544 90.983950433705147 C73.720901959158539 90.517950433705167 64.615901959158549 91.349950433705175 64.615901959158549 91.349950433705175 zM10.900901959158546 64.125907014243467 C10.900901959158546 64.125907014243467 10.900901959158546 64.125907014243467 10.900901959158546 64.125907014243467 C10.900901959158546 64.125907014243467 10.900901959158546 64.125907014243467 10.900901959158546 64.125907014243467 C10.900901959158546 64.125907014243467 10.900901959158546 64.125907014243467 10.900901959158546 64.125907014243467 z" />
<glyph unicode="K" horiz-adv-x="89.841212808004343" d="M3.095473901687358 114.584730324346200 C0.095473901687358 110.584730324346200 4.095473901687358 1.584730324346197 4.762473901687359 0.251730324346198 C5.429473901687360 -1.081269675653800 31.875473901687361 -1.126269675653788 33.818473901687355 0.562730324346205 C35.354473901687356 1.897730324346213 31.947473901687353 36.325730324345841 31.485473901687360 47.895730324345834 C52.818473901687369 29.895730324345834 58.761473901687353 0.584730324346197 62.095473901687356 -0.082269675653805 C65.428473901687354 -0.749269675653807 87.762473901687358 9.917730324346195 88.095473901687356 13.917730324346195 C88.428473901687354 17.917730324346195 68.152473901687358 52.895730324345976 48.485473901687357 63.228730324345975 C70.818473901687355 77.228730324345975 81.761473901687367 105.584730324346110 81.428473901687354 108.917730324346110 C81.095473901687356 112.251730324346110 58.095473901687356 119.251730324346200 53.095473901687356 117.584730324346200 C51.197473901687360 116.952730324346210 48.485473901687371 90.229730324345979 30.818473901687359 74.895730324345990 C30.485473901687364 93.895730324345976 32.208473901687356 114.539730324346210 27.818473901687359 117.228730324346200 C24.577473901687359 119.214730324346210 6.095473901687358 118.584730324346200 3.095473901687358 114.584730324346200 zM11.628473901687357 64.125907014243467 C11.628473901687357 64.125907014243467 11.628473901687357 64.125907014243467 11.628473901687357 64.125907014243467 C11.628473901687357 64.125907014243467 11.628473901687357 64.125907014243467 11.628473901687357 64.125907014243467 C11.628473901687357 64.125907014243467 11.628473901687357 64.125907014243467 11.628473901687357 64.125907014243467 zM11.628473901687357 64.125907014243467 C11.628473901687357 64.125907014243467 11.628473901687357 64.125907014243467 11.628473901687357 64.125907014243467 C11.628473901687357 64.125907014243467 11.628473901687357 64.125907014243467 11.628473901687357 64.125907014243467 C11.628473901687357 64.125907014243467 11.628473901687357 64.125907014243467 11.628473901687357 64.125907014243467 z" />
<glyph unicode="L" horiz-adv-x="79.860122625908048" d="M4.566549660728771 116.738683729265030 C2.233549660728773 114.037683729265040 0.566549660728771 1.954683729264012 2.566549660728771 0.266683729264024 C4.566549660728771 -1.421316270735957 71.233549660728769 -0.746316270735932 73.233549660728769 0.941683729264078 C75.233549660728769 2.629683729264094 80.566549660728782 31.663683729265060 77.566549660728782 33.351683729265048 C74.566549660728782 35.039683729265036 38.899549660728766 26.599683729265053 34.566549660728768 27.612683729265044 C33.233549660728784 57.321683729265047 34.566549660728768 112.012683729265050 30.566549660728768 115.388683729265040 C28.566549660728768 117.076683729265040 6.900549660728775 119.439683729265040 4.566549660728771 116.738683729265030 zM11.466549660728788 64.125907014243467 C11.466549660728788 64.125907014243467 11.466549660728788 64.125907014243467 11.466549660728788 64.125907014243467 C11.466549660728788 64.125907014243467 11.466549660728788 64.125907014243467 11.466549660728788 64.125907014243467 C11.466549660728788 64.125907014243467 11.466549660728788 64.125907014243467 11.466549660728788 64.125907014243467 z" />
<glyph unicode="M" horiz-adv-x="128.60518787744775" d="M1.835531584693317 1.048203221808436 C0.319531584693319 3.048203221808436 26.595531584693319 115.048203221809360 28.468531584693309 116.715203221809360 C30.342531584693312 118.382203221809360 53.477531584693310 117.715203221809360 55.101531584693305 116.382203221809360 C56.726531584693305 115.049203221809360 63.701531584693299 72.382203221809149 63.701531584693299 72.382203221809149 C63.701531584693299 72.382203221809149 71.197531584693294 115.382203221809360 73.514531584693302 117.049203221809360 C73.514531584693302 117.049203221809360 98.028531584693312 118.716203221809370 99.819531584693323 117.049203221809360 C101.610531584693330 115.382203221809360 127.994531584693330 2.716203221808442 126.781531584693310 1.049203221808440 C125.568531584693290 -0.617796778191561 93.010531584693311 -0.617796778191561 90.941531584693308 1.049203221808440 C88.872531584693306 2.716203221808442 80.684531584693332 53.716203221809295 80.684531584693332 53.716203221809295 C80.684531584693332 53.716203221809295 66.328531584693323 6.716203221808726 63.650531584693326 6.049203221808725 C60.972531584693328 5.382203221808723 45.502531584693330 52.716203221809309 45.502531584693330 52.716203221809309 C45.502531584693330 52.716203221809309 39.801531584693329 2.716203221808442 37.346531584693331 1.049203221808440 C34.892531584693316 -0.618796778191538 3.352531584693315 -0.951796778191564 1.835531584693317 1.048203221808436 zM11.194531584693323 64.125907014243467 C11.194531584693323 64.125907014243467 11.194531584693323 64.125907014243467 11.194531584693323 64.125907014243467 C11.194531584693323 64.125907014243467 11.194531584693323 64.125907014243467 11.194531584693323 64.125907014243467 C11.194531584693323 64.125907014243467 11.194531584693323 64.125907014243467 11.194531584693323 64.125907014243467 z" />
<glyph unicode="N" horiz-adv-x="95.465789582786329" d="M1.580879202885512 0.669950433704308 C1.580879202885512 0.669950433704308 4.830879202885512 114.419950433705280 7.580879202885512 116.669950433705280 C10.330879202885514 118.919950433705280 33.330879202885512 118.169950433705280 36.080879202885512 116.669950433705280 C38.830879202885512 115.169950433705280 60.080879202885512 62.669950433705083 60.080879202885512 62.669950433705083 C60.080879202885512 62.669950433705083 61.580879202885512 115.419950433705280 63.080879202885512 116.669950433705280 C64.580879202885512 117.919950433705280 87.830879202885512 117.919950433705280 89.580879202885512 116.169950433705280 C91.330879202885512 114.419950433705280 94.580879202885512 2.419950433704308 93.080879202885512 0.669950433704308 C91.580879202885512 -1.080049566295685 57.830879202885512 -0.330049566295685 56.080879202885512 0.669950433704308 C54.330879202885512 1.669950433704308 37.080879202885512 55.669950433705175 37.080879202885512 55.669950433705175 C37.080879202885512 55.669950433705175 39.330879202885512 2.669950433704337 37.580879202885512 1.169950433704337 C35.830879202885512 -0.330049566295656 1.580879202885512 0.669950433704308 1.580879202885512 0.669950433704308 zM11.080879202885512 64.125907014243467 C11.080879202885512 64.125907014243467 11.080879202885512 64.125907014243467 11.080879202885512 64.125907014243467 C11.080879202885512 64.125907014243467 11.080879202885512 64.125907014243467 11.080879202885512 64.125907014243467 C11.080879202885512 64.125907014243467 11.080879202885512 64.125907014243467 11.080879202885512 64.125907014243467 z" />
<glyph unicode="O" horiz-adv-x="95.341643518838396" d="M92.460256989262120 50.810950433705258 C88.960256989262120 13.709950433705259 67.460256989262120 -2.780049566295730 38.214256989262125 0.194950433704300 C18.792256989262121 2.170950433704292 1.168256989262101 20.550950433705204 2.073256989262125 55.096950433705210 C2.870256989262130 85.557950433705201 30.146256989262127 117.130950433705370 52.697256989262137 117.768950433705300 C82.419256989262124 118.609950433705240 95.164256989262114 79.479950433705227 92.460256989262120 50.810950433705258 zM32.364256989262117 55.038950433705182 C32.364256989262117 35.457950433705179 49.538256989262109 30.619950433705284 59.864256989262117 41.640950433705285 C73.864256989262117 56.584950433705288 61.862256989262121 84.461950433705113 50.864256989262117 83.894950433705091 C40.864256989262117 83.379950433705091 32.364256989262117 66.374950433705180 32.364256989262117 55.038950433705182 zM11.364256989262117 64.125907014243467 C11.364256989262117 64.125907014243467 11.364256989262117 64.125907014243467 11.364256989262117 64.125907014243467 C11.364256989262117 64.125907014243467 11.364256989262117 64.125907014243467 11.364256989262117 64.125907014243467 C11.364256989262117 64.125907014243467 11.364256989262117 64.125907014243467 11.364256989262117 64.125907014243467 z" />
<glyph unicode="P" horiz-adv-x="73.844105710718964" d="M-6.381708954639576 2.831449689749398 C-9.492708954639577 4.985449689749395 -7.817708954639576 111.956449689750290 -5.424708954639575 114.349449689750290 C-3.031708954639575 116.742449689750290 2.233291045360424 117.460449689750190 28.078291045360423 116.981449689750290 C53.923291045360422 116.502449689750360 70.640291045360428 104.639449689750050 71.315291045360425 79.583449689750054 C72.193291045360439 46.994449689750056 35.693291045360418 41.494449689750304 28.693291045360418 41.494449689750304 C29.693291045360411 27.994449689750304 33.321291045360418 6.114449689749364 27.693291045360418 1.994449689749359 C23.288291045360424 -1.229550310250630 -3.270708954639575 0.677449689749402 -6.381708954639576 2.831449689749398 zM41.691291045360430 80.024449689749972 C42.393291045360428 93.423449689749972 27.274291045360428 94.460449689750163 25.191291045360430 94.043449689750162 C24.691291045360430 90.793449689750162 26.691291045360430 65.543449689750020 26.691291045360430 62.043449689750020 C29.357291045360427 61.376449689750018 40.857291045360419 64.107449689749970 41.691291045360430 80.024449689749972 zM1.793291045360434 64.125907014243467 C1.793291045360434 64.125907014243467 1.793291045360434 64.125907014243467 1.793291045360434 64.125907014243467 C1.793291045360434 64.125907014243467 1.793291045360434 64.125907014243467 1.793291045360434 64.125907014243467 C1.793291045360434 64.125907014243467 1.793291045360434 64.125907014243467 1.793291045360434 64.125907014243467 zM1.793291045360434 64.125907014243467 C1.793291045360434 64.125907014243467 1.793291045360434 64.125907014243467 1.793291045360434 64.125907014243467 C1.793291045360434 64.125907014243467 1.793291045360434 64.125907014243467 1.793291045360434 64.125907014243467 C1.793291045360434 64.125907014243467 1.793291045360434 64.125907014243467 1.793291045360434 64.125907014243467 zM1.793291045360434 64.125907014243467 C1.793291045360434 64.125907014243467 1.793291045360434 64.125907014243467 1.793291045360434 64.125907014243467 C1.793291045360434 64.125907014243467 1.793291045360434 64.125907014243467 1.793291045360434 64.125907014243467 C1.793291045360434 64.125907014243467 1.793291045360434 64.125907014243467 1.793291045360434 64.125907014243467 z" />
<glyph unicode="Q" horiz-adv-x="103.7151688524666" d="M11.357584426233188 81.759715281127569 C11.357584426233188 81.759715281127569 11.357584426233188 81.759715281127569 11.357584426233188 81.759715281127569 C11.357584426233188 81.759715281127569 11.357584426233188 81.759715281127569 11.357584426233188 81.759715281127569 C11.357584426233188 81.759715281127569 11.357584426233188 81.759715281127569 11.357584426233188 81.759715281127569 zM51.243584426233184 36.476680672748827 C46.590584426233185 33.242680672748833 32.396584426233176 40.480680672748605 32.396584426233183 55.100680672748595 C32.396584426233183 66.386680672748597 40.896584426233183 83.314680672748665 50.896584426233176 83.827680672748670 C60.016584426233180 84.295680672748688 70.396584426233176 64.077680672748542 65.396584426233176 50.739680672748548 C58.396584426233176 57.664680672748545 56.309584426233172 62.928680672748676 55.396584426233176 62.794680672748690 C51.896584426233176 62.281680672748685 47.896584426233176 54.073680672748559 47.896584426233176 50.995680672748556 C47.896584426233190 50.270680672748547 48.896584426233190 41.506680672748814 51.243584426233184 36.476680672748827 zM84.157584426233186 -0.866191733115670 C86.657584426233186 -0.866191733115670 102.657584426233190 16.062808266884346 101.657584426233190 20.679808266884336 C101.285584426233190 22.397808266884340 92.907584426233186 24.783808266884336 87.907584426233186 30.169808266884331 C89.192584426233182 32.278808266884326 91.842584426233188 42.349808266883947 92.657584426233186 50.945808266883951 C95.362584426233184 79.486808266883926 82.617584426233208 118.440808266884350 52.894584426233216 117.604808266884330 C30.343584426233207 116.969808266884370 3.067584426233214 85.537808266884014 2.270584426233201 55.212808266884011 C1.366584426233192 20.820808266884050 18.989584426233208 2.522808266884326 38.411584426233205 0.555808266884327 C50.376584426233201 -0.656191733115648 56.657584426233207 -0.354191733115670 69.715584426233193 6.729808266884334 C74.657584426233200 0.928808266884317 83.262584426233190 -0.866191733115670 84.157584426233186 -0.866191733115670 zM11.357584426233188 81.759715281127569 C11.357584426233188 81.759715281127569 11.357584426233188 81.759715281127569 11.357584426233188 81.759715281127569 C11.357584426233188 81.759715281127569 11.357584426233188 81.759715281127569 11.357584426233188 81.759715281127569 C11.357584426233188 81.759715281127569 11.357584426233188 81.759715281127569 11.357584426233188 81.759715281127569 z" />
<glyph unicode="R" horiz-adv-x="91.203019121718398" d="M51.729868368319863 79.743728368791210 C51.529868368319860 93.334728368791218 35.941868368319874 94.524728368791216 33.857868368319870 94.102728368791219 C33.272868368319862 90.251728368791220 35.357868368319870 79.852728368791219 35.607868368319870 66.852728368791219 C38.274868368319872 66.177728368791207 51.896868368319851 68.451728368791208 51.729868368319863 79.743728368791210 zM64.330868368319869 51.399728368791216 C83.617868368319847 34.938728368791210 91.298868368319873 5.138728368791192 88.881868368319871 3.112728368791181 C86.464868368319870 1.086728368791171 59.195868368319857 -0.770271631208828 53.327868368319862 2.605728368791176 C50.768868368319865 4.078728368791190 51.630868368319867 24.399728368791202 37.995868368319861 40.269728368791206 C37.995868368319861 40.269728368791206 41.591868368319865 5.644728368791164 37.794868368319868 2.943728368791170 C33.221868368319861 -0.309271631208844 6.936868368319862 0.089728368791157 3.714868368319865 2.271728368791173 C0.492868368319868 4.453728368791190 2.227868368319866 112.140728368791200 4.705868368319869 114.564728368791190 C7.183868368319873 116.988728368791190 12.635868368319869 117.715728368791300 39.400868368319877 117.231728368791180 C66.165868368319877 116.747728368791090 82.889868368319881 104.707728368791210 84.175868368319883 79.347728368791223 C84.912868368319863 64.821728368791213 76.239868368319875 55.831728368791218 64.330868368319869 51.399728368791216 zM11.524868368319868 82.321762977170096 C11.524868368319868 82.321762977170096 11.524868368319868 82.321762977170096 11.524868368319868 82.321762977170096 C11.524868368319868 82.321762977170096 11.524868368319868 82.321762977170096 11.524868368319868 82.321762977170096 C11.524868368319868 82.321762977170096 11.524868368319868 82.321762977170096 11.524868368319868 82.321762977170096 z" />
<glyph unicode="S" horiz-adv-x="77.58115559486464" d="M73.508836799749346 98.296733654869541 C71.582836799749344 105.873733654869540 51.679836799749353 117.837733654869540 36.591836799749345 117.438733654869550 C21.503836799749340 117.039733654869560 3.890836799749373 108.640733654869340 2.563836799749351 82.743733654869345 C1.861836799749353 69.034733654869328 8.020836799749354 56.821733654869469 17.009836799749351 54.030733654869451 C32.831836799749340 49.116733654869435 46.864836799749348 46.852733654869546 42.690836799749349 33.691733654869545 C38.035836799749354 19.012733654869542 16.045836799749360 42.066733654869545 12.514836799749355 45.655733654869543 C11.023836799749356 47.170733654869544 0.315836799749356 18.936733654869272 1.599836799749356 12.954733654869273 C2.883836799749355 6.972733654869273 20.499836799749350 0.192733654868540 32.096836799749354 0.192733654868540 C60.667836799749352 0.192733654868540 72.157836799749361 8.615733654869558 75.112836799749346 25.715733654869553 C77.731836799749345 40.869733654869549 72.865836799749346 54.827733654869327 60.987836799749346 63.202733654869327 C48.866836799749350 71.748733654869341 31.132836799749342 69.745733654869326 31.132836799749345 81.945733654869315 C31.132836799749345 99.492733654869312 53.282836799749333 92.713733654869316 63.876836799749341 71.975733654869302 C65.949836799749349 67.921733654869314 75.248836799749355 91.451733654869543 73.508836799749346 98.296733654869541 zM11.215836799749354 64.125907014243467 C11.215836799749354 64.125907014243467 11.215836799749354 64.125907014243467 11.215836799749354 64.125907014243467 C11.215836799749354 64.125907014243467 11.215836799749354 64.125907014243467 11.215836799749354 64.125907014243467 C11.215836799749354 64.125907014243467 11.215836799749354 64.125907014243467 11.215836799749354 64.125907014243467 z" />
<glyph unicode="T" horiz-adv-x="93.489586932187194" d="M3.284770083332081 116.655781908302560 C4.821770083332080 117.826781908302560 89.186770083332078 118.767781908302570 91.051770083332073 115.993781908302570 C92.916770083332068 113.219781908302560 90.878770083332071 91.120781908302433 88.759770083332072 88.852781908302433 C86.640770083332072 86.584781908302432 61.577770083332069 87.528781908302420 61.577770083332069 87.528781908302420 C61.577770083332069 87.528781908302420 66.817770083332064 2.795781908301564 64.852770083332075 0.809781908301574 C62.887770083332086 -1.176218091698416 32.431770083332076 -0.514218091698439 30.793770083332078 0.809781908301574 C29.156770083332077 2.133781908301586 31.448770083332079 86.866781908302414 31.448770083332079 86.866781908302414 C31.448770083332079 86.866781908302414 7.457770083332081 85.982781908302428 4.921770083332078 88.190781908302426 C2.385770083332076 90.398781908302425 1.747770083332082 115.485781908302560 3.284770083332081 116.655781908302560 zM12.016770083332062 64.125907014243467 C12.016770083332062 64.125907014243467 12.016770083332062 64.125907014243467 12.016770083332062 64.125907014243467 C12.016770083332062 64.125907014243467 12.016770083332062 64.125907014243467 12.016770083332062 64.125907014243467 C12.016770083332062 64.125907014243467 12.016770083332062 64.125907014243467 12.016770083332062 64.125907014243467 z" />
<glyph unicode="U" horiz-adv-x="99.418194883984484" d="M9.669081853484542 115.724697645601890 C-3.276918146515472 71.391697645601894 -4.166918146515464 -0.108302354398475 49.945081853484538 -0.358302354399143 C104.057081853484530 -0.608302354399839 103.057081853484530 73.058697645601882 89.420081853484547 116.058697645601900 C88.751081853484550 118.167697645601890 63.452081853484543 118.144697645601890 63.724081853484549 115.725697645601900 C66.603081853484554 90.058697645601896 75.779081853484556 39.058697645601782 50.418081853484551 38.725697645601898 C25.057081853484547 38.392697645602013 33.620081853484550 90.725697645601898 36.057081853484547 116.058697645601900 C36.288081853484542 118.461697645601890 10.530081853484543 118.671697645601880 9.669081853484542 115.724697645601890 zM11.557081853484533 64.125907014243467 C11.557081853484533 64.125907014243467 11.557081853484533 64.125907014243467 11.557081853484533 64.125907014243467 C11.557081853484533 64.125907014243467 11.557081853484533 64.125907014243467 11.557081853484533 64.125907014243467 C11.557081853484533 64.125907014243467 11.557081853484533 64.125907014243467 11.557081853484533 64.125907014243467 z" />
<glyph unicode="V" horiz-adv-x="96.319511576671175" d="M2.479144086460760 116.060527540157660 C-0.187855913539238 114.060527540157660 28.146144086460758 2.393527540156654 30.479144086460757 1.060527540156656 C32.812144086460755 -0.272472459843343 64.479144086460764 -0.606472459843332 66.479144086460764 1.393527540156676 C68.479144086460764 3.393527540156676 95.479144086460764 114.726527540157660 93.812144086460762 116.393527540157660 C92.145144086460760 118.060527540157660 69.145144086460760 118.060527540157660 66.812144086460762 116.726527540157660 C64.479144086460764 115.393527540157660 48.479144086460757 55.393527540157564 48.479144086460757 55.393527540157564 C48.479144086460757 55.393527540157564 32.146144086460758 114.393527540157660 30.146144086460758 116.060527540157660 C28.145144086460760 117.727527540157670 5.145144086460764 118.060527540157660 2.479144086460760 116.060527540157660 zM11.812144086460762 64.125907014243467 C11.812144086460762 64.125907014243467 11.812144086460762 64.125907014243467 11.812144086460762 64.125907014243467 C11.812144086460762 64.125907014243467 11.812144086460762 64.125907014243467 11.812144086460762 64.125907014243467 C11.812144086460762 64.125907014243467 11.812144086460762 64.125907014243467 11.812144086460762 64.125907014243467 z" />
<glyph unicode="W" horiz-adv-x="114.61975373474661" d="M3.156814513342697 116.116329417780490 C1.640814513342699 114.116329417780490 12.615814513342698 2.449329417779495 14.489814513342695 0.783329417779498 C16.363814513342696 -0.883670582220503 48.048814513342691 0.080329417779538 49.672814513342693 1.413329417779529 C51.297814513342693 2.746329417779528 58.272814513342688 45.413329417780510 58.272814513342688 45.413329417780510 C58.272814513342688 45.413329417780510 65.768814513342676 2.413329417779494 68.085814513342683 0.746329417779492 C68.085814513342683 0.746329417779492 100.364814513342710 -0.216670582220459 102.155814513342700 1.449329417779538 C103.946814513342700 3.116329417779539 112.701814513342700 115.449329417780500 111.488814513342700 117.116329417780510 C110.275814513342710 118.783329417780510 86.557814513342706 118.116329417780510 84.488814513342703 116.449329417780500 C82.419814513342700 114.782329417780500 75.255814513342699 64.079329417780286 75.255814513342699 64.079329417780286 C75.255814513342699 64.079329417780286 60.899814513342697 111.079329417780500 58.221814513342700 111.746329417780500 C55.543814513342703 112.413329417780500 40.073814513342697 65.079329417780272 40.073814513342697 65.079329417780272 C40.073814513342697 65.079329417780272 33.610814513342696 114.782329417780500 31.155814513342698 116.449329417780490 C28.701814513342697 118.116329417780490 4.672814513342695 118.116329417780490 3.156814513342697 116.116329417780490 zM12.201814513342697 64.125907014243467 C12.201814513342697 64.125907014243467 12.201814513342697 64.125907014243467 12.201814513342697 64.125907014243467 C12.201814513342697 64.125907014243467 12.201814513342697 64.125907014243467 12.201814513342697 64.125907014243467 C12.201814513342697 64.125907014243467 12.201814513342697 64.125907014243467 12.201814513342697 64.125907014243467 z" />
<glyph unicode="X" horiz-adv-x="95.161758405771025" d="M5.947832437362550 115.795513439560210 C6.780832437362549 118.215513439560200 30.947832437362553 118.078513439560210 34.614832437362551 115.120513439560200 C38.281832437362553 112.162513439560200 46.614832437362551 88.449513439560064 46.614832437362551 88.449513439560064 C46.614832437362551 88.449513439560064 58.281832437362553 113.543513439560200 61.114832437362566 115.695513439560200 C63.947832437362564 117.846513439560200 85.114832437362551 118.384513439560210 87.781832437362553 115.695513439560200 C90.448832437362555 113.006513439560190 62.614832437362566 58.065513439560057 62.614832437362566 58.065513439560057 C62.614832437362566 58.065513439560057 95.140832437362562 7.547513439559360 92.974832437362551 3.513513439559368 C90.807832437362549 -0.520486560440617 61.711832437362560 -2.072486560440780 59.198832437362569 1.172513439559225 C56.698832437362569 4.399513439559229 46.948832437362569 24.642513439560204 46.948832437362569 24.642513439560204 C46.948832437362569 24.642513439560204 38.781832437362567 3.499513439559230 35.281832437362567 1.347513439559243 C31.781832437362564 -0.803486560440760 4.057832437362560 -1.289486560440679 1.891832437362560 2.744513439559313 C-0.275167562637442 6.778513439559305 30.948832437362565 58.740513439560061 30.948832437362565 58.740513439560061 C30.948832437362565 58.740513439560061 5.114832437362546 113.374513439560200 5.947832437362550 115.795513439560210 zM10.624832437362556 64.125907014243467 C10.624832437362556 64.125907014243467 10.624832437362556 64.125907014243467 10.624832437362556 64.125907014243467 C10.624832437362556 64.125907014243467 10.624832437362556 64.125907014243467 10.624832437362556 64.125907014243467 C10.624832437362556 64.125907014243467 10.624832437362556 64.125907014243467 10.624832437362556 64.125907014243467 z" />
<glyph unicode="Y" horiz-adv-x="96.282527881040892" d="M34.699999999999996 50.312093531046742 C34.699999999999996 50.312093531046742 27.699999999999996 3.979093531045798 30.032999999999994 1.979093531045798 C32.365999999999993 -0.020906468954195 63.366000000000000 -0.687906468954253 67.033000000000001 1.312093531045754 C67.675820717131472 1.662691140607507 67.929388692242981 3.385890962832583 67.910421337079896 5.989688193901692 C67.821188552562660 18.239370621885904 61.700000000000003 49.979093531046743 61.700000000000003 49.979093531046743 C61.700000000000003 49.979093531046743 95.700000000000003 117.212093531046780 94.033000000000001 118.185093531046770 C92.366000000000000 119.158093531046770 69.366000000000000 119.158093531046770 67.033000000000001 118.380093531046780 C64.700000000000003 117.602093531046780 48.699999999999989 82.578093531046520 48.699999999999989 82.578093531046520 C48.699999999999989 82.578093531046520 32.366999999999990 117.018093531046760 30.366999999999990 117.991093531046770 C28.366999999999990 118.964093531046760 5.366999999999990 119.158093531046770 2.699999999999989 117.991093531046770 C0.032999999999994 116.823093531046770 34.699999999999996 50.312093531046742 34.699999999999996 50.312093531046742 zM11.920693928128799 64.125907014243467 C11.920693928128799 64.125907014243467 11.920693928128799 64.125907014243467 11.920693928128799 64.125907014243467 C11.920693928128799 64.125907014243467 11.920693928128799 64.125907014243467 11.920693928128799 64.125907014243467 C11.920693928128799 64.125907014243467 11.920693928128799 64.125907014243467 11.920693928128799 64.125907014243467 zM11.920693928128799 64.125907014243467 C11.920693928128799 64.125907014243467 11.920693928128799 64.125907014243467 11.920693928128799 64.125907014243467 C11.920693928128799 64.125907014243467 11.920693928128799 64.125907014243467 11.920693928128799 64.125907014243467 C11.920693928128799 64.125907014243467 11.920693928128799 64.125907014243467 11.920693928128799 64.125907014243467 z" />
<glyph unicode="Z" horiz-adv-x="81.180124652782524" d="M2.938074446179561 115.805697645601200 C3.991074446179562 117.448697645601200 80.663074446179564 119.091697645601200 80.452074446179566 115.394697645601200 C80.241074446179567 111.697697645601200 50.496074446179556 41.471697645601196 50.496074446179556 41.471697645601196 C50.496074446179556 41.471697645601196 74.566074446179570 47.411697645601194 75.829074446179561 44.536697645601194 C77.092074446179552 41.661697645601194 79.609074446179562 3.671697645600261 78.135074446179559 2.028697645600261 C76.661074446179555 0.385697645600260 3.725074446179558 -3.438302354399738 1.829074446179556 2.311697645600262 C-0.066925553820440 8.061697645600262 38.829074446179554 87.102697645601012 38.829074446179554 87.102697645601012 C38.829074446179554 87.102697645601012 5.759074446179556 77.957697645600945 4.496074446179557 81.654697645600947 C3.233074446179559 85.351697645600950 1.885074446179560 114.162697645601200 2.938074446179561 115.805697645601200 zM11.733074446179558 64.125907014243467 C11.733074446179558 64.125907014243467 11.733074446179558 64.125907014243467 11.733074446179558 64.125907014243467 C11.733074446179558 64.125907014243467 11.733074446179558 64.125907014243467 11.733074446179558 64.125907014243467 C11.733074446179558 64.125907014243467 11.733074446179558 64.125907014243467 11.733074446179558 64.125907014243467 z" />
<glyph unicode="\" horiz-adv-x="91.44877765647243" d="M83.222850831248792 -0.046468042177466 C82.314850831248791 -0.112468042177468 62.390850831248791 28.770531957822513 41.871850831248793 56.805531957822517 C22.239850831248784 83.627531957822526 1.953850831248793 109.626531957822580 1.995850831248792 110.811531957822580 C2.080850831248793 113.234531957822580 7.133850831248790 116.965531957822580 8.882850831248792 116.288531957822580 C9.736850831248791 115.957531957822580 27.000850831248790 88.284531957822537 46.562850831248795 61.449531957822543 C67.040850831248804 33.358531957822528 89.837850831248801 6.034531957822537 89.705850831248796 5.132531957822522 C89.447850831248786 3.366531957822531 85.000850831248783 0.083531957822530 83.222850831248792 -0.046468042177466 zM9.853850831248792 64.125907014243467 C9.853850831248792 64.125907014243467 9.853850831248792 64.125907014243467 9.853850831248792 64.125907014243467 C9.853850831248792 64.125907014243467 9.853850831248792 64.125907014243467 9.853850831248792 64.125907014243467 C9.853850831248792 64.125907014243467 9.853850831248792 64.125907014243467 9.853850831248792 64.125907014243467 z" />
<glyph unicode="_" horiz-adv-x="114.50194165365326" d="M2.567389961443364 -9.437999999999988 C3.081389961443364 -8.794999999999988 31.266389961443366 -10.905999999999835 58.848389961443360 -10.693999999999988 C85.198389961443354 -10.492000000000246 110.998389961443370 -7.941999999999979 111.612389961443370 -8.432999999999993 C112.868389961443370 -9.437999999999988 112.868389961443370 -15.718999999999994 111.361389961443360 -17.227000000000004 C110.624389961443370 -17.963999999999999 84.468389961443364 -17.087999999999241 58.095389961443374 -17.227000000000004 C30.529389961443371 -17.371999999999943 2.701389961443372 -18.500000000000000 2.316389961443367 -17.729999999999990 C1.562389961443365 -16.221999999999980 1.562389961443365 -10.693999999999988 2.567389961443364 -9.437999999999988 zM11.962389961443364 64.125907014243467 C11.962389961443364 64.125907014243467 11.962389961443364 64.125907014243467 11.962389961443364 64.125907014243467 C11.962389961443364 64.125907014243467 11.962389961443364 64.125907014243467 11.962389961443364 64.125907014243467 C11.962389961443364 64.125907014243467 11.962389961443364 64.125907014243467 11.962389961443364 64.125907014243467 z" />
<glyph unicode="a" horiz-adv-x="78.109409764928614" d="M49.047120976769207 9.890309667188589 C32.393120976769197 -12.198690332811424 -3.883879023230787 4.187309667188472 2.649120976769204 42.622309667188460 C7.807120976769218 72.968309667188464 37.322120976769206 77.635309667188636 51.649120976769211 65.193309667188629 C51.909120976769216 68.212309667188634 52.236120976769215 70.629309667188622 52.690120976769208 71.012309667188632 C53.991120976769210 72.110309667188631 74.490120976769205 71.470309667188630 75.792120976769212 69.549309667188638 C76.362120976769205 68.708309667188644 75.011120976769206 56.869309667188396 75.011120976769206 40.677309667188403 C75.011120976769206 16.250309667188397 77.473120976769209 1.469309667189130 76.303120976769208 0.698309667189143 C74.221120976769214 -0.673690332810864 50.739120976769215 0.093309667189132 49.819120976769199 1.063309667189131 C48.518120976769211 2.435309667189117 48.787120976769216 5.499309667188584 49.047120976769207 9.890309667188589 zM39.530120976769211 48.406309667188637 C33.554120976769212 49.461309667188644 28.625120976769210 44.190309667188345 27.775120976769209 38.404309667188343 C26.770120976769206 31.559309667188337 33.161120976769212 25.183309667188155 39.082120976769211 26.104309667188154 C45.013120976769208 27.026309667188151 49.407120976769207 31.596309667188315 49.573120976769218 37.447309667188321 C49.739120976769229 43.298309667188320 45.166120976769214 47.412309667188630 39.530120976769211 48.406309667188637 zM11.286120976769212 81.392344275567524 C11.286120976769212 81.392344275567524 11.286120976769212 81.392344275567524 11.286120976769212 81.392344275567524 C11.286120976769212 81.392344275567524 11.286120976769212 81.392344275567524 11.286120976769212 81.392344275567524 C11.286120976769212 81.392344275567524 11.286120976769212 81.392344275567524 11.286120976769212 81.392344275567524 z" />
<glyph unicode="b" horiz-adv-x="83.39538453136845" d="M25.360999999999933 115.633999999998510 C28.878999999999934 114.628999999998510 30.027999999999977 83.967000000000084 30.862999999999978 67.103000000000080 C45.995999999999981 76.623000000000076 80.467999999999563 69.179999999999637 81.413999999999561 37.049999999999649 C82.359999999999545 4.919999999999654 56.361000000000004 -9.700000000000003 33.028000000000013 6.634000000000022 C33.264000000000010 1.636000000000031 35.016000000000020 3.017000000000117 33.125000000000021 1.589000000000119 C31.234000000000023 0.161000000000122 4.155999999999990 -1.135999999999882 3.386999999999993 2.349000000000096 C2.100000000000001 8.180000000000085 2.220999999999961 114.126372986367800 5.693999999999960 116.124372986367800 C11.211984633633421 117.609797968394670 17.406999999999933 117.906999999998500 25.360999999999933 115.633999999998510 zM37.482328132557711 35.675156411939199 C39.278328132557704 27.894156411939193 45.914328132557849 26.271156411939280 49.542328132557849 26.630156411939275 C54.995328132557852 27.169156411939277 59.453328132557843 33.215156411939283 58.336328132557846 39.695156411939287 C57.080328132557845 46.981156411939288 51.020328132557843 49.698156411939472 45.271328132557848 48.740156411939481 C40.748328132557845 47.986156411939490 35.974328132557702 42.207156411939195 37.482328132557711 35.675156411939199 zM-4.561327878170772 1.546156411939684 C-4.561327878170772 1.546156411939684 -4.561327878170772 1.546156411939684 -4.561327878170772 1.546156411939684 C-4.561327878170772 1.546156411939684 -4.561327878170772 1.546156411939684 -4.561327878170772 1.546156411939684 C-4.561327878170772 1.546156411939684 -4.561327878170772 1.546156411939684 -4.561327878170772 1.546156411939684 z" />
<glyph unicode="c" horiz-adv-x="75.81777476817615" d="M73.310737344702133 48.084732272909221 C75.245737344702135 43.141732272909223 50.777737344702132 40.194732272909221 49.441737344702133 43.059732272909216 C44.165737344702137 54.366732272909218 29.089737344702129 50.848732272909224 29.064737344702138 36.523732272909214 C29.043737344702137 24.539732272909220 44.278737344702130 22.874732272909213 48.684737344702143 31.987732272909213 C50.107737344702144 34.930732272909211 75.066737344702148 27.692732272909211 73.813737344702147 24.466732272909212 C58.486737344702128 -14.980267727090762 5.083737344702133 -3.132267727090792 2.375737344702143 32.509732272909204 C-0.675262655297812 72.682732272909192 56.979737344702151 89.792732272909220 73.310737344702133 48.084732272909221 zM11.445737344702138 64.125907014243467 C11.445737344702138 64.125907014243467 11.445737344702138 64.125907014243467 11.445737344702138 64.125907014243467 C11.445737344702138 64.125907014243467 11.445737344702138 64.125907014243467 11.445737344702138 64.125907014243467 C11.445737344702138 64.125907014243467 11.445737344702138 64.125907014243467 11.445737344702138 64.125907014243467 z" />
<glyph unicode="d" horiz-adv-x="84.153296204677531" d="M78.215328132557147 115.946156411938080 C81.688328132557146 113.948156411938070 81.810328132557146 8.159156411939669 80.523328132557140 2.328156411939681 C79.754328132557134 -1.156843588060326 52.676328132557835 0.139156411939702 50.785328132557844 1.568156411939704 C48.894328132557852 2.997156411939706 50.646328132557848 1.615156411939616 50.882328132557838 6.613156411939606 C27.549328132557839 -9.719843588060400 1.550328132557588 4.899156411939238 2.496328132557586 37.029156411939233 C3.442328132557588 69.159156411939222 37.913328132557844 76.602156411939688 53.046328132557839 67.082156411939664 C53.881328132557847 83.946156411939668 55.030328132557848 114.608156411938100 58.548328132557849 115.613156411938090 C66.502328132557835 117.886156411938090 72.530328132557145 119.216156411938070 78.215328132557147 115.946156411938080 zM38.473328132557711 48.740156411939481 C32.724328132557702 49.698156411939479 26.664328132557539 46.981156411939288 25.408328132557536 39.695156411939287 C24.291328132557538 33.215156411939283 28.749328132557618 27.169156411939277 34.202328132557611 26.630156411939275 C37.830328132557611 26.271156411939280 44.466328132557841 27.894156411939193 46.262328132557847 35.675156411939199 C47.770328132557843 42.207156411939195 42.996328132557707 47.986156411939490 38.473328132557711 48.740156411939481 zM-3.485947771129048 1.546156411939684 C-3.485947771129048 1.546156411939684 -3.485947771129048 1.546156411939684 -3.485947771129048 1.546156411939684 C-3.485947771129048 1.546156411939684 -3.485947771129048 1.546156411939684 -3.485947771129048 1.546156411939684 C-3.485947771129048 1.546156411939684 -3.485947771129048 1.546156411939684 -3.485947771129048 1.546156411939684 z" />
<glyph unicode="e" horiz-adv-x="78.752942422944216" d="M74.643052076855426 22.117651444297316 C72.772052076855431 11.675651444297323 58.038052076855436 1.088651444296097 44.965052076855429 0.195651444296153 C20.053052076855430 -1.505348555703819 5.640052076855422 9.770651444297322 2.240052076855427 29.470651444297324 C-1.159947923144571 49.170651444297327 12.479052076855428 67.870651444296911 32.651052076855429 71.535651444296903 C71.186052076855418 78.535651444296917 82.045052076855427 37.878651444297290 75.396052076855426 33.142651444297286 C69.862052076855420 29.201651444297283 43.706052076855428 24.733651444297308 28.366052076855425 29.608651444297315 C28.471052076855422 23.914651444297313 30.512052076855426 18.008651444297293 36.379052076855423 16.981651444297292 C42.420052076855427 15.924651444297290 45.427052076855425 20.557651444297314 47.501052076855423 20.909651444297317 C60.491052076855425 23.115651444297313 75.005052076855435 24.138651444297317 74.643052076855426 22.117651444297316 zM30.215052076855429 41.399651444297007 C35.645052076855428 38.439651444297020 45.676052076855427 38.865651444297029 47.414052076855427 40.758651444297030 C51.119052076855425 44.794651444297031 48.257052076855430 52.372651444296807 42.007052076855430 52.582651444296808 C38.123052076855430 52.713651444296808 32.052052076855432 48.756651444297006 30.215052076855429 41.399651444297007 zM11.665052076855432 81.474686052675821 C11.665052076855432 81.474686052675821 11.665052076855432 81.474686052675821 11.665052076855432 81.474686052675821 C11.665052076855432 81.474686052675821 11.665052076855432 81.474686052675821 11.665052076855432 81.474686052675821 C11.665052076855432 81.474686052675821 11.665052076855432 81.474686052675821 11.665052076855432 81.474686052675821 z" />
<glyph unicode="f" horiz-adv-x="65.726473284412009" d="M57.113937111611634 60.246367113039788 C59.831937111611637 61.573367113039787 65.960937111611628 73.063367113039803 63.976937111611633 74.311367113039807 C63.181937111611632 74.811367113039807 47.770937111611630 73.812367113039798 39.998937111611632 74.477367113039804 C35.285937111611631 96.948367113039808 37.269937111611632 102.690367113039970 41.982937111611633 103.939367113039960 C51.350937111611628 106.420367113039960 50.912937111611626 94.451367113039780 48.183937111611627 90.207367113039780 C46.950937111611630 88.288367113039783 66.869937111611620 77.020367113039796 68.275937111611626 80.303367113039798 C76.543937111611626 99.611367113039805 70.921937111611626 117.588367113039910 47.108937111611624 117.921367113040190 C21.313937111611622 118.282367113040070 12.345937111611656 95.041367113039811 12.059937111611625 74.555367113039807 C12.059937111611625 74.555367113039807 2.497937111611627 74.878367113039815 2.294937111611624 74.810367113039817 C1.550937111611624 74.560367113039817 1.798937111611625 62.576367113039801 3.026937111611623 61.577367113039791 C3.359937111611622 61.307367113039795 6.793937111611623 61.365367113039845 11.718937111611623 61.410367113039790 C11.718937111611623 61.410367113039790 15.936937111611627 1.655367113039446 17.425937111611624 0.906367113039451 C18.914937111611621 0.157367113039456 50.208937111611618 -1.357632886960587 52.400937111611626 0.407367113039427 C54.880937111611630 2.404367113039442 48.265937111611628 38.494367113039814 43.222937111611628 60.745367113039798 C43.222937111611643 60.746367113039788 55.579937111611642 59.497367113039779 57.113937111611634 60.246367113039788 zM11.543937111611626 64.125907014243467 C11.543937111611626 64.125907014243467 11.543937111611626 64.125907014243467 11.543937111611626 64.125907014243467 C11.543937111611626 64.125907014243467 11.543937111611626 64.125907014243467 11.543937111611626 64.125907014243467 C11.543937111611626 64.125907014243467 11.543937111611626 64.125907014243467 11.543937111611626 64.125907014243467 zM46.822937111611630 18.579872405864592 C48.961937111611633 24.352872405864588 46.609937111611629 30.906872405864590 41.567937111611627 33.219872405864592 C36.525937111611626 35.532872405864595 30.786937111611628 33.203872405864587 27.771937111611628 27.173872405864586 C25.018937111611628 21.667872405864586 26.515937111611628 14.108872405864588 32.796937111611626 11.595872405864583 C39.168937111611626 9.047872405864588 44.683937111611627 12.807872405864586 46.822937111611630 18.579872405864592 zM11.543937111611626 64.125907014243467 C11.543937111611626 64.125907014243467 11.543937111611626 64.125907014243467 11.543937111611626 64.125907014243467 C11.543937111611626 64.125907014243467 11.543937111611626 64.125907014243467 11.543937111611626 64.125907014243467 C11.543937111611626 64.125907014243467 11.543937111611626 64.125907014243467 11.543937111611626 64.125907014243467 z" />
<glyph unicode="g" horiz-adv-x="81.563964013764348" d="M6.996324719116608 -14.232999999998469 C6.364324719116606 -11.303999999998467 23.375324719116605 -7.907999999998140 30.478324719116607 -7.907999999998140 C35.170324719116607 -7.907999999998140 31.464324719116604 -12.799999999998462 40.063324719116608 -13.798999999998458 C45.035324719116609 -14.375999999998456 56.910324719116609 -8.600999999996986 55.138324719116611 12.080000000003004 C38.932324719116608 -10.889999999997016 -1.184675280883377 1.147000000003310 2.270324719116609 35.420000000003327 C5.641324719116629 68.864000000003301 36.545324719116607 81.929000000003327 53.298324719116607 64.664000000003327 C53.063324719116608 69.622000000003325 52.648324719116601 70.221000000003329 54.525324719116611 71.638000000003331 C56.402324719116621 73.055000000003332 72.214324719116618 75.085000000003333 72.978324719116614 71.628000000003340 C74.255324719116615 65.844000000003334 78.016324719116611 44.824000000003338 79.426324719116607 21.720000000003324 C82.023324719116587 -20.833999999996678 74.201324719116613 -37.916000000000068 47.676324719116607 -41.448000000000008 C26.998324719116603 -44.199999999999989 11.671324719116598 -35.908999999998485 6.996324719116608 -14.232999999998469 zM46.984324719116593 36.346999999999994 C49.123324719116596 42.119999999999990 46.771324719116592 48.673999999999992 41.729324719116590 50.986999999999995 C36.687324719116589 53.299999999999997 30.948324719116592 50.970999999999989 27.933324719116591 44.940999999999988 C25.180324719116591 39.434999999999988 26.677324719116591 31.875999999999991 32.958324719116590 29.362999999999985 C39.330324719116589 26.814999999999991 44.845324719116590 30.574999999999989 46.984324719116593 36.346999999999994 zM11.723324719116590 81.900000000000006 C11.723324719116590 81.900000000000006 11.723324719116590 81.900000000000006 11.723324719116590 81.900000000000006 C11.723324719116590 81.900000000000006 11.723324719116590 81.900000000000006 11.723324719116590 81.900000000000006 C11.723324719116590 81.900000000000006 11.723324719116590 81.900000000000006 11.723324719116590 81.900000000000006 z" />
<glyph unicode="h" horiz-adv-x="78.243819184367339" d="M28.000000000000000 64.125907014243467 C28.000000000000000 64.125907014243467 28.000000000000000 64.125907014243467 28.000000000000000 64.125907014243467 C28.000000000000000 64.125907014243467 28.000000000000000 64.125907014243467 28.000000000000000 64.125907014243467 C28.000000000000000 64.125907014243467 28.000000000000000 64.125907014243467 28.000000000000000 64.125907014243467 zM4.323000000000004 0.407000000000011 C2.305000000000003 1.117000000000019 1.500000000000000 115.058000000000010 2.221000000000000 115.960000000000010 C3.613000000000000 117.700000000000000 22.008000000000020 117.647000000000020 23.971000000000021 116.210000000000010 C27.609000000000020 113.547000000000030 30.264000000000024 85.347999999999956 32.471000000000004 65.459999999999951 C41.731000000000002 74.447999999999951 58.233000000000033 74.309999999999945 66.832000000000022 63.324999999999946 C81.824000000000026 44.171999999999940 75.140000000000015 2.070000000000000 71.471000000000018 0.960000000000015 C68.177000000000021 -0.037000000000006 49.230999999999966 -0.282999999999973 43.511999999999958 1.012000000000008 C41.696999999999960 2.738000000000007 54.897999999999961 45.321999999999917 39.711999999999968 46.679999999999922 C30.220999999999968 48.209999999999923 37.124999999999964 3.457000000000029 35.470999999999968 1.460000000000015 C32.970999999999982 -0.288999999999987 6.971000000000004 -1.538999999999987 4.323000000000004 0.407000000000011 zM28.000000000000000 64.125907014243467 C28.000000000000000 64.125907014243467 28.000000000000000 64.125907014243467 28.000000000000000 64.125907014243467 C28.000000000000000 64.125907014243467 28.000000000000000 64.125907014243467 28.000000000000000 64.125907014243467 C28.000000000000000 64.125907014243467 28.000000000000000 64.125907014243467 28.000000000000000 64.125907014243467 z" />
<glyph unicode="i" horiz-adv-x="35.54631177936551" d="M7.356057526383953 72.074665084241076 C9.512057526383952 74.244665084241078 28.192057526383948 73.406665084241070 30.176057526383957 71.741665084241077 C32.160057526383959 70.076665084241071 36.129057526383960 2.498665084241310 31.830057526383953 1.166665084241288 C27.530057526383956 -0.165334915758706 7.025057526383954 -0.165334915758706 3.387057526383952 1.832665084241285 C-0.249942473616045 3.830665084241304 5.372057526383955 70.077665084241062 7.356057526383953 72.074665084241076 zM22.261057526383951 119.463265004629590 C13.633057526383951 122.184265004629590 3.974057526383953 115.506265004629380 1.979057526383951 107.196265004629400 C0.227057526383948 99.899265004629399 4.079057526383952 88.963265004629278 13.003057526383948 87.497265004629270 C22.235057526383947 85.981265004629279 30.685057526383950 91.373265004629218 33.224057526383952 99.531265004629205 C35.764057526383951 107.689265004629220 30.889057526383951 116.742265004629590 22.261057526383951 119.463265004629590 zM11.464057526383954 81.607699692619946 C11.464057526383954 81.607699692619946 11.464057526383954 81.607699692619946 11.464057526383954 81.607699692619946 C11.464057526383954 81.607699692619946 11.464057526383954 81.607699692619946 11.464057526383954 81.607699692619946 C11.464057526383954 81.607699692619946 11.464057526383954 81.607699692619946 11.464057526383954 81.607699692619946 z" />
<glyph unicode="j" horiz-adv-x="65.002557910156042" d="M26.712208725931063 70.063872405864586 C30.738208725931059 72.083872405864582 48.301208725931062 71.720872405864583 50.581208725931063 69.309872405864581 C52.862208725931069 66.898872405864580 66.267208725931056 8.769872405864589 64.149208725931061 -11.092127594135434 C62.139208725931056 -29.936127594135428 50.079208725931068 -47.273127594135417 19.741208725931060 -44.848127594135434 C-1.631791274068942 -43.140127594135464 -5.060791274068940 -16.165127594135441 -3.857791274068941 -10.968127594135439 C-2.654791274068941 -5.770127594135431 17.129208725931058 -0.161127594135451 19.955208725931058 -1.314127594135442 C22.781208725931059 -2.467127594135434 17.667208725931062 -17.374127594135444 26.461208725931058 -15.113127594135449 C45.563208725931062 -10.200127594135424 22.686208725931060 68.043872405864590 26.712208725931063 70.063872405864586 zM43.569208725931063 118.445177240963150 C35.508208725931063 122.567177240963150 24.884208725931060 117.591177240963150 21.549208725931067 109.728177240963130 C18.621208725931069 102.824177240963140 20.620208725931064 91.396177240963141 29.179208725931069 88.463177240963148 C38.034208725931066 85.428177240963137 48.309208725931072 88.882177240963131 52.156208725931066 96.504177240963145 C56.003208725931060 104.127177240963140 51.630208725931055 114.323177240963130 43.569208725931063 118.445177240963150 zM6.203208725931063 80.125907014243467 C6.203208725931063 80.125907014243467 6.203208725931063 80.125907014243467 6.203208725931063 80.125907014243467 C6.203208725931063 80.125907014243467 6.203208725931063 80.125907014243467 6.203208725931063 80.125907014243467 C6.203208725931063 80.125907014243467 6.203208725931063 80.125907014243467 6.203208725931063 80.125907014243467 zM6.203208725931063 64.125907014243467 C6.203208725931063 64.125907014243467 6.203208725931063 64.125907014243467 6.203208725931063 64.125907014243467 C6.203208725931063 64.125907014243467 6.203208725931063 64.125907014243467 6.203208725931063 64.125907014243467 C6.203208725931063 64.125907014243467 6.203208725931063 64.125907014243467 6.203208725931063 64.125907014243467 z" />
<glyph unicode="k" horiz-adv-x="79.896859726464072" d="M3.804439527738158 114.630204801850170 C0.742439527738156 110.727204801850180 2.364439527738158 2.496204801849267 2.997439527738161 1.159204801849249 C3.630439527738159 -0.177795198150733 26.459439527738162 -0.017795198150722 28.479439527738165 1.592204801849263 C30.499439527738168 3.202204801849248 26.415439527738158 13.218204801850163 26.264439527738162 21.493204801850155 C38.081439527738162 17.263204801850151 48.304439527738147 0.495204801849169 51.596439527738148 -0.238795198150811 C54.888439527738150 -0.972795198150791 77.271439527738153 9.123204801849930 77.688439527738154 13.084204801849943 C78.105439527738156 17.045204801849955 52.335439527738153 33.824204801850172 43.472439527738146 36.997204801850174 C55.519439527738150 43.349204801850149 74.063439527738154 59.485204801849967 73.804439527738168 62.799204801849960 C73.545439527738154 66.113204801849960 50.881439527738159 73.560204801849935 45.885439527738164 72.015204801849947 C43.989439527738163 71.429204801849949 35.945439527738174 56.021204801850153 25.184439527738171 47.985204801850159 C26.512439527738174 78.727204801850164 37.739439527738163 111.811204801850150 32.613439527738173 115.981204801850150 C29.689439527738159 118.362204801850170 6.866439527738161 118.533204801850160 3.804439527738158 114.630204801850170 zM11.242439527738156 64.125907014243467 C11.242439527738156 64.125907014243467 11.242439527738156 64.125907014243467 11.242439527738156 64.125907014243467 C11.242439527738156 64.125907014243467 11.242439527738156 64.125907014243467 11.242439527738156 64.125907014243467 C11.242439527738156 64.125907014243467 11.242439527738156 64.125907014243467 11.242439527738156 64.125907014243467 z" />
<glyph unicode="l" horiz-adv-x="36.483741241829193" d="M9.959714735838308 116.463203221809320 C12.115714735838306 118.633203221809340 30.795714735838310 117.795203221809330 32.779714735838304 116.130203221809320 C34.763714735838306 114.465203221809330 35.921714735838307 2.278203221808404 31.621714735838303 0.946203221808410 C27.321714735838299 -0.385796778191576 5.989714735838298 -0.551796778191544 2.351714735838304 1.445203221808434 C-1.286285264161695 3.442203221808420 7.974714735838308 114.466203221809340 9.959714735838308 116.463203221809320 zM10.721714735838304 64.125907014243467 C10.721714735838304 64.125907014243467 10.721714735838304 64.125907014243467 10.721714735838304 64.125907014243467 C10.721714735838304 64.125907014243467 10.721714735838304 64.125907014243467 10.721714735838304 64.125907014243467 C10.721714735838304 64.125907014243467 10.721714735838304 64.125907014243467 10.721714735838304 64.125907014243467 z" />
<glyph unicode="m" horiz-adv-x="116.48954547339042" d="M73.765342495727310 43.649757604234139 C76.907342495727292 29.667757604234140 73.941342495727298 1.016757604234904 71.144342495727301 0.169757604234924 C67.967342495727308 -0.791242395765082 50.029342495727313 -0.594242395765093 49.412342495727309 0.388757604234904 C48.795342495727304 1.370757604234903 60.011342495727320 53.595757604234251 39.913342495727306 46.936757604234259 C25.975342495727304 42.318757604234264 32.590342495727306 0.039757604234936 31.267342495727306 -0.126242395765061 C27.920342495727304 -0.547242395765053 5.501342495727306 -0.754242395765090 2.982342495727306 0.552757604234905 C1.150342495727305 1.503757604234899 1.543342495727302 21.112757604233899 1.914342495727304 35.827757604233902 C2.313342495727328 51.649757604233912 3.249342495727305 67.974757604234341 4.058342495727302 68.737757604234346 C5.619342495727302 70.211757604234350 26.683342495727302 70.220757604234350 28.383342495727298 68.600757604234346 C29.731342495727297 67.315757604234349 29.944342495727298 65.455757604234364 30.201342495727296 59.993757604234361 C38.874342495727305 72.775757604234357 56.403342495727294 74.942757604234359 66.608342495727300 60.600757604234360 C76.412342495727302 77.939757604234359 100.484342495727280 73.656757604234357 109.109342495727280 57.770757604234362 C121.274342495727270 35.364757604234384 111.725342495727290 1.407757604234909 108.187342495727280 0.337757604234916 C105.010342495727270 -0.623242395765089 87.072342495727284 -0.093242395765117 86.455342495727280 0.556757604234896 C85.838342495727275 1.206757604234902 100.124342495727280 48.524757604234289 80.712342495727285 47.479757604234287 C77.445342495727303 47.302757604234266 75.584342495727313 45.980757604234142 73.765342495727310 43.649757604234139 zM11.446465176913762 64.125907014243467 C11.446465176913762 64.125907014243467 11.446465176913762 64.125907014243467 11.446465176913762 64.125907014243467 C11.446465176913762 64.125907014243467 11.446465176913762 64.125907014243467 11.446465176913762 64.125907014243467 C11.446465176913762 64.125907014243467 11.446465176913762 64.125907014243467 11.446465176913762 64.125907014243467 z" />
<glyph unicode="n" horiz-adv-x="76.636125352975569" d="M10.610082318744389 64.125907014243467 C10.610082318744389 64.125907014243467 10.610082318744389 64.125907014243467 10.610082318744389 64.125907014243467 C10.610082318744389 64.125907014243467 10.610082318744389 64.125907014243467 10.610082318744389 64.125907014243467 C10.610082318744389 64.125907014243467 10.610082318744389 64.125907014243467 10.610082318744389 64.125907014243467 zM2.742082318744391 -0.011874352205695 C0.910082318744390 0.939125647794299 1.100082318744391 21.308125647793297 1.471082318744390 36.022125647793295 C1.870082318744414 51.844125647793305 2.806082318744391 69.334125647793712 3.615082318744392 70.098125647793708 C5.176082318744392 71.572125647793712 27.728082318744391 70.832125647793717 29.428082318744394 69.212125647793712 C30.776082318744393 67.927125647793716 31.559082318744395 66.202125647793721 31.485082318744396 61.073125647793731 C40.580082318744410 74.223125647793722 59.912082318744396 74.828125647793740 69.474082318744408 57.216125647793731 C81.639082318744400 34.810125647793754 72.090082318744408 0.853125647794286 68.552082318744411 -0.216874352205707 C65.375082318744404 -1.177874352205720 47.767082318744414 -0.980874352205717 46.820082318744412 0.002125647794287 C45.872082318744411 0.984125647794286 60.383082318744407 47.160125647793592 40.959082318744407 46.383125647793641 C25.367082318744409 45.759125647793624 31.817082318744404 2.482125647794234 30.494082318744411 0.651125647794245 C29.733082318744394 -0.399874352205742 5.260082318744392 -1.318874352205683 2.742082318744391 -0.011874352205695 zM10.610082318744389 64.125907014243467 C10.610082318744389 64.125907014243467 10.610082318744389 64.125907014243467 10.610082318744389 64.125907014243467 C10.610082318744389 64.125907014243467 10.610082318744389 64.125907014243467 10.610082318744389 64.125907014243467 C10.610082318744389 64.125907014243467 10.610082318744389 64.125907014243467 10.610082318744389 64.125907014243467 z" />
<glyph unicode="o" horiz-adv-x="73.545141719987214" d="M34.365429628298841 72.101125647793793 C50.447429628298842 71.833125647793707 70.297429628298858 55.752125647793264 71.804429628298848 33.390125647793269 C73.145429628298842 13.499125647793264 62.256429628298839 0.727125647794423 38.803429628298844 0.040125647794383 C16.261429628298842 -0.619874352205684 2.548429628298834 9.212125647793208 1.453429628298840 29.118125647793214 C-0.054570371701148 56.506125647793226 20.779429628298843 72.328125647793627 34.365429628298841 72.101125647793793 zM48.103429628298855 39.439998053658002 C46.658429628298855 44.203998053657998 41.144429628298852 51.369998053658314 33.191429628298856 49.049998053658321 C27.325429628298856 47.338998053658315 23.403429628298852 38.566998053657798 24.906429628298852 33.805998053657802 C26.894429628298855 27.509998053657796 33.853429628298855 25.520998053657749 40.481429628298855 27.177998053657745 C44.512429628298847 28.185998053657741 50.147429628298852 32.700998053657997 48.103429628298855 39.439998053658002 zM11.045429628298848 80.954032662037193 C11.045429628298848 80.954032662037193 11.045429628298848 80.954032662037193 11.045429628298848 80.954032662037193 C11.045429628298848 80.954032662037193 11.045429628298848 80.954032662037193 11.045429628298848 80.954032662037193 C11.045429628298848 80.954032662037193 11.045429628298848 80.954032662037193 11.045429628298848 80.954032662037193 z" />
<glyph unicode="p" horiz-adv-x="83.329878433594558" d="M6.033939216797165 -43.509127594135407 C3.056939216797165 -41.512127594135393 3.311939216797159 -8.466127594135401 4.257939216797166 22.625872405864598 C4.966939216797178 45.949872405864596 1.910939216797164 64.377872405864593 3.197939216797167 70.208872405864597 C3.966939216797165 73.693872405864596 28.011939216797167 73.244872405864598 29.902939216797165 71.816872405864586 C31.794939216797168 70.388872405864589 30.892939216797167 70.533872405864599 30.656939216797163 65.535872405864595 C54.777939216797165 82.872872405864598 82.170939216797166 67.637872405864599 81.224939216797168 35.508872405864594 C80.278939216797156 3.379872405864603 51.007939216797169 -8.082127594135415 33.168939216797170 5.234872405864593 C34.424939216797171 -10.594127594135415 36.540939216797170 -40.325127594135409 33.168939216797170 -42.001127594135397 C26.078939216797167 -45.526127594135403 10.846939216797166 -46.739127594135397 6.033939216797165 -43.509127594135407 zM44.475939216797165 26.088872405864592 C49.249939216797166 24.832872405864592 54.071939216797162 29.180872405864591 55.028939216797170 33.374872405864593 C55.985939216797163 37.569872405864601 53.802939216797171 44.592872405864583 48.747939216797171 45.434872405864596 C42.717939216797170 46.439872405864591 37.618939216797173 41.391872405864589 36.938939216797174 37.143872405864599 C35.932939216797166 30.862872405864593 40.949939216797162 27.016872405864589 44.475939216797165 26.088872405864592 zM13.664939216797165 81.125907014243467 C13.664939216797165 81.125907014243467 13.664939216797165 81.125907014243467 13.664939216797165 81.125907014243467 C13.664939216797165 81.125907014243467 13.664939216797165 81.125907014243467 13.664939216797165 81.125907014243467 C13.664939216797165 81.125907014243467 13.664939216797165 81.125907014243467 13.664939216797165 81.125907014243467 z" />
<glyph unicode="q" horiz-adv-x="82.514061441936974" d="M44.152207183427500 -37.880581374486695 C38.530207183427507 -27.227581374486704 40.845207183427505 -15.909581374486720 43.491207183427498 3.732418625513283 C28.358207183427488 -5.787581374486734 2.747207183427488 1.856418625513285 1.801207183427501 33.986418625513295 C0.855207183427552 66.116418625513305 33.238207183427534 81.298418625513335 52.090207183427509 64.320418625513298 C53.099207183427509 68.378418625513305 54.056207183427503 69.209418625513294 55.948207183427513 70.637418625513305 C57.840207183427523 72.065418625513303 79.060207183427508 73.170418625513307 79.829207183427513 69.685418625513293 C81.116207183427520 63.854418625513290 59.925207183427517 1.599418625513295 67.965207183427509 -13.911581374486673 C71.934207183427503 -21.568581374486683 79.871207183427515 -10.915581374486663 82.517207183427502 -11.581581374486660 C85.422207183427503 -12.312581374486655 89.719207183427500 -31.126581374486648 87.809207183427503 -33.885581374486662 C80.202207183427504 -44.871581374486681 54.146207183427506 -56.817581374486679 44.152207183427500 -37.880581374486695 zM42.856207183427500 35.223418625513290 C41.899207183427500 39.418418625513297 38.245207183427503 42.153418625513282 34.693207183427504 41.333418625513289 C31.141207183427504 40.512418625513291 29.037207183427505 36.447418625513293 29.994207183427505 32.252418625513286 C30.951207183427506 28.057418625513279 34.605207183427503 25.322418625513286 38.157207183427502 26.142418625513280 C41.708207183427504 26.963418625513292 43.812207183427503 31.028418625513297 42.856207183427500 35.223418625513290 zM11.428207183427503 80.601453233892173 C11.428207183427503 80.601453233892173 11.428207183427503 80.601453233892173 11.428207183427503 80.601453233892173 C11.428207183427503 80.601453233892173 11.428207183427503 80.601453233892173 11.428207183427503 80.601453233892173 C11.428207183427503 80.601453233892173 11.428207183427503 80.601453233892173 11.428207183427503 80.601453233892173 z" />
<glyph unicode="r" horiz-adv-x="77.376108793773938" d="M3.318202973056312 -0.081521901761064 C1.486202973056312 0.869478098238929 1.691202973056305 22.218478098239103 2.047202973056312 37.450478098239103 C2.417202973056336 53.272478098239105 3.382202973056312 70.762478098239470 4.191202973056310 71.526478098239480 C5.752202973056310 73.000478098239483 25.368202973056309 74.089478098239482 27.068202973056312 72.469478098239478 C28.416202973056311 71.184478098239481 30.313202973056310 68.964478098239496 30.240202973056309 63.835478098239498 C56.618202973056313 87.136478098239508 79.439202973056311 59.921478098239511 75.222202973056312 56.176478098239500 C72.735202973056317 53.967478098239496 57.459202973056300 38.121478098239166 56.618202973056306 39.198478098239164 C51.161202973056312 46.189478098239164 45.952202973056316 51.432478098239471 39.713202973056312 49.145478098239479 C25.051202973056309 43.771478098239484 36.432202973056306 3.194478098238946 35.109202973056313 1.363478098238957 C34.348202973056317 0.312478098238913 5.837202973056314 -1.388521901761081 3.318202973056312 -0.081521901761064 zM10.686202973056311 64.125907014243467 C10.686202973056311 64.125907014243467 10.686202973056311 64.125907014243467 10.686202973056311 64.125907014243467 C10.686202973056311 64.125907014243467 10.686202973056311 64.125907014243467 10.686202973056311 64.125907014243467 C10.686202973056311 64.125907014243467 10.686202973056311 64.125907014243467 10.686202973056311 64.125907014243467 z" />
<glyph unicode="s" horiz-adv-x="70.004445304330602" d="M66.648127679274850 61.276266879488517 C64.891127679274845 66.020266879488517 46.738127679274854 73.510266879488483 32.977127679274844 73.260266879488512 C19.216127679274845 73.010266879488540 3.151127679274869 67.752266879488516 1.941127679274846 51.538266879488518 C1.301127679274844 42.955266879488519 6.300127679274848 34.374266879487926 14.498127679274848 32.627266879487934 C28.929127679274846 29.551266879487940 42.136127679274850 29.612266879487912 39.121127679274849 23.582266879487911 C36.346127679274844 18.032266879487914 14.704127679274846 27.365266879487912 11.483127679274844 29.612266879487912 C10.123127679274845 30.561266879487910 -0.107872320725154 11.590266879488603 1.063127679274846 7.845266879488598 C2.234127679274844 4.100266879488594 18.301127679274845 -0.144733120510878 28.878127679274851 -0.144733120510878 C54.937127679274852 -0.144733120510878 65.417127679274842 5.128266879488038 68.112127679274849 15.834266879488041 C70.501127679274845 25.322266879488041 66.537127679274846 35.926266879488210 55.703127679274843 41.169266879488212 C44.647127679274845 46.520266879488219 27.999127679274839 43.400266879488498 27.999127679274839 51.038266879488503 C27.999127679274839 62.024266879488508 48.202127679274852 57.779266879488333 57.864127679274844 44.796266879488329 C59.753127679274854 42.259266879488351 68.235127679274854 56.990266879488516 66.648127679274850 61.276266879488517 zM10.901127679274850 64.125907014243467 C10.901127679274850 64.125907014243467 10.901127679274850 64.125907014243467 10.901127679274850 64.125907014243467 C10.901127679274850 64.125907014243467 10.901127679274850 64.125907014243467 10.901127679274850 64.125907014243467 C10.901127679274850 64.125907014243467 10.901127679274850 64.125907014243467 10.901127679274850 64.125907014243467 z" />
<glyph unicode="t" horiz-adv-x="66.326934859017115" d="M2.084060336369038 53.518122764103936 C-1.343939663630962 55.988122764103935 0.837060336369039 72.165122764104055 4.577060336369037 74.141122764104054 C5.737060336369037 74.754122764104054 21.108060336369036 72.534122764104055 21.108060336369036 72.534122764104055 C21.108060336369036 72.534122764104055 23.138060336369037 92.422122764103946 23.665060336369038 92.840122764103938 C25.697060336369034 94.450122764103938 43.298060336369034 93.828122764103938 45.168060336369038 92.593122764103938 C45.686060336369039 92.251122764103940 46.378060336369032 82.229122764104048 46.684060336369043 72.789122764104050 C46.684060336369043 72.789122764104050 62.851060336369045 75.564122764104042 63.789060336369047 74.635122764104054 C66.282060336369042 72.165122764104055 66.594060336369054 55.247122764103935 64.101060336369045 53.765122764103936 C63.213060336369040 53.237122764103930 47.038060336369043 54.085122764103929 47.038060336369043 54.085122764103929 C47.038060336369043 54.085122764103929 46.712060336369049 1.485122764103458 44.311060336369046 0.900122764103479 C40.260060336369044 -0.087877235896514 20.159060336369045 -0.211877235896495 16.731060336369048 1.271122764103509 C14.716060336369047 2.142122764103519 16.934060336369043 29.937122764103954 19.458060336369044 53.855122764103953 C19.458060336369037 53.854122764103934 3.183060336369039 52.725122764103929 2.084060336369038 53.518122764103936 zM9.794060336369057 64.125907014243467 C9.794060336369057 64.125907014243467 9.794060336369057 64.125907014243467 9.794060336369057 64.125907014243467 C9.794060336369057 64.125907014243467 9.794060336369057 64.125907014243467 9.794060336369057 64.125907014243467 C9.794060336369057 64.125907014243467 9.794060336369057 64.125907014243467 9.794060336369057 64.125907014243467 z" />
<glyph unicode="u" horiz-adv-x="75.095700722765059" d="M71.487305855364085 72.273231805346356 C73.366305855364089 71.298231805346347 71.990305855364085 52.424231805346196 72.241305855364089 35.338231805346197 C72.489305855364080 18.489231805346193 75.507305855364095 1.167231805346205 73.749305855364085 0.665231805346195 C71.633305855364085 0.060231805346206 50.131305855364090 -0.088768194653795 47.618305855364085 0.916231805346200 C45.845305855364082 1.625231805346203 45.783305855364084 1.186231805346210 45.859305855364084 6.444231805346192 C39.326305855364083 -2.851768194653801 16.862305855364077 -4.819768194653818 7.059305855364088 13.235231805346189 C-5.411694144635906 36.205231805346180 4.904305855364087 71.017231805346341 8.005305855364089 72.114231805346336 C11.213305855364093 73.249231805346341 25.793305855364089 73.280231805346332 26.764305855364086 72.273231805346342 C27.735305855364082 71.266231805346337 17.216305855364084 25.288231805346193 36.293305855364082 24.341231805346183 C52.270305855364086 23.548231805346184 48.272305855364081 69.894231805346337 49.628305855364090 71.771231805346332 C50.407305855364086 72.848231805346344 68.905305855364091 73.613231805346345 71.487305855364085 72.273231805346356 zM11.688305855364092 64.125907014243467 C11.688305855364092 64.125907014243467 11.688305855364092 64.125907014243467 11.688305855364092 64.125907014243467 C11.688305855364092 64.125907014243467 11.688305855364092 64.125907014243467 11.688305855364092 64.125907014243467 C11.688305855364092 64.125907014243467 11.688305855364092 64.125907014243467 11.688305855364092 64.125907014243467 z" />
<glyph unicode="v" horiz-adv-x="76.29282348226252" d="M0.704745217267195 70.469125647793717 C-0.277254782732804 69.377125647793719 3.849745217267201 47.929125647793157 11.236745217267195 29.163125647793166 C17.452745217267186 13.373125647793174 24.218745217267195 0.575125647794309 25.055745217267198 0.269125647794297 C26.887745217267199 -0.400874352205690 49.116745217267194 -1.071874352205711 50.683745217267202 0.269125647794297 C51.397745217267200 0.880125647794287 58.334745217267198 12.628125647793155 64.000745217267209 28.410125647793151 C71.035745217267205 48.008125647793150 76.584745217267198 68.704125647793717 75.764745217267190 69.799125647793716 C74.257745217267185 71.810125647793711 53.789745217267196 71.962125647793712 51.437745217267192 70.621125647793718 C49.085745217267188 69.280125647793724 46.975745217267189 53.297125647793180 37.869745217267194 33.184125647793195 C29.792745217267196 53.297125647793187 26.329745217267192 69.532125647793720 24.804745217267193 70.872125647793723 C23.279745217267195 72.212125647793712 2.513745217267193 72.480125647793713 0.704745217267195 70.469125647793717 zM10.322745217267197 64.125907014243467 C10.322745217267197 64.125907014243467 10.322745217267197 64.125907014243467 10.322745217267197 64.125907014243467 C10.322745217267197 64.125907014243467 10.322745217267197 64.125907014243467 10.322745217267197 64.125907014243467 C10.322745217267197 64.125907014243467 10.322745217267197 64.125907014243467 10.322745217267197 64.125907014243467 z" />
<glyph unicode="w" horiz-adv-x="110.97137961056364" d="M1.779621605560973 70.831923153816746 C3.763621605560971 72.530923153816744 25.914621605560974 72.862923153816737 28.560621605560968 71.163923153816739 C31.206621605560969 69.464923153816727 30.898621605560969 52.916923153817081 36.851621605560965 34.228923153817092 C45.052621605560972 49.072923153817086 52.716621605560960 71.484923153816737 55.362621605560960 71.823923153816736 C58.008621605560961 72.163923153816739 67.779621605560962 49.769923153817075 76.047621605560963 34.479923153817083 C81.339621605560964 52.487923153817086 79.431621605560963 69.375923153816743 82.077621605560964 71.414923153816744 C84.723621605560965 73.453923153816746 107.613621605560970 72.190923153816755 109.266621605560970 70.491923153816757 C110.920621605560970 68.792923153816758 108.238621605560970 19.661923153816076 97.655621605560967 1.313923153816077 C96.338621605560974 -0.969076846183910 66.718621605560969 -1.514076846183940 65.279621605560976 1.007923153816044 C59.657621605560976 10.860923153816039 58.003621605560966 16.127923153817164 56.019621605560971 25.641923153817160 C53.373621605560970 16.467923153817168 51.223621605560965 9.672923153816065 45.270621605560969 1.177923153816074 C43.712621605560969 -1.045076846183932 13.426621605560968 -0.632076846183921 12.479621605560972 1.313923153816077 C4.211621605560980 18.302923153816067 -0.205378394439027 69.132923153816748 1.779621605560973 70.831923153816746 zM10.820621605560973 64.125907014243467 C10.820621605560973 64.125907014243467 10.820621605560973 64.125907014243467 10.820621605560973 64.125907014243467 C10.820621605560973 64.125907014243467 10.820621605560973 64.125907014243467 10.820621605560973 64.125907014243467 C10.820621605560973 64.125907014243467 10.820621605560973 64.125907014243467 10.820621605560973 64.125907014243467 z" />
<glyph unicode="x" horiz-adv-x="92.899259730149311" d="M1.641786606965951 70.622371010166646 C2.468786606965949 72.120371010166636 27.798786606965947 71.760371010166637 31.436786606965953 69.929371010166633 C35.074786606965958 68.098371010166630 46.290786606965952 52.646371010166661 46.290786606965952 52.646371010166661 C46.290786606965952 52.646371010166661 58.273786606965956 69.100371010166640 61.084786606965949 70.432371010166648 C63.895786606965956 71.764371010166641 87.962786606965949 71.621371010166655 90.608786606965950 69.957371010166639 C93.254786606965951 68.293371010166638 63.323786606965953 35.169371010166195 63.323786606965953 35.169371010166195 C63.323786606965953 35.169371010166195 93.750786606965946 3.543371010167157 91.601786606965945 1.047371010167176 C89.451786606965939 -1.449628989832846 61.318786606965944 -0.670628989832835 58.824786606965944 1.337371010167146 C56.344786606965940 3.334371010167160 46.764786606965941 15.407371010166173 46.764786606965941 15.407371010166173 C46.764786606965941 15.407371010166173 37.674786606965938 1.663371010167211 34.201786606965939 0.332371010167222 C30.728786606965940 -0.999628989832772 3.627786606965939 -1.615628989832828 1.477786606965942 0.880371010167181 C-0.672213393034053 3.376371010167190 28.597786606965940 35.502371010166215 28.597786606965940 35.502371010166215 C28.597786606965940 35.502371010166215 0.814786606965953 69.124371010166641 1.641786606965951 70.622371010166646 zM10.527786606965947 64.125907014243467 C10.527786606965947 64.125907014243467 10.527786606965947 64.125907014243467 10.527786606965947 64.125907014243467 C10.527786606965947 64.125907014243467 10.527786606965947 64.125907014243467 10.527786606965947 64.125907014243467 C10.527786606965947 64.125907014243467 10.527786606965947 64.125907014243467 10.527786606965947 64.125907014243467 z" />
<glyph unicode="y" horiz-adv-x="87.434299323300365" d="M0.778656910029767 72.252999999999986 C-0.604343089970232 70.005999999999986 30.610656910029768 7.587000000000003 32.783656910029769 0.595999999999989 C29.227656910029772 -14.135000000000005 9.462656910029770 -12.803000000000011 7.487656910029770 -17.048000000000016 C5.151656910029772 -22.067000000000021 14.765656910029769 -44.874000000000009 17.409656910029767 -44.679000000000016 C30.969656910029769 -43.680000000000021 46.020656910029771 -33.360000000000014 59.454656910029769 0.594999999999985 C72.926656910029777 34.644999999999982 87.412656910029767 71.498999999999981 86.520656910029771 72.501999999999981 C84.742656910029766 74.498999999999981 60.639656910029771 73.749999999999972 58.071656910029773 71.752999999999986 C55.503656910029775 69.755999999999972 44.529656910029772 35.549999999999969 44.529656910029772 35.549999999999969 C44.529656910029772 35.549999999999969 30.214656910029767 70.754999999999995 28.831656910029771 71.753999999999991 C27.448656910029769 72.751999999999995 2.161656910029771 74.500000000000000 0.778656910029767 72.252999999999986 zM8.812656910029773 64.125907014243467 C8.812656910029773 64.125907014243467 8.812656910029773 64.125907014243467 8.812656910029773 64.125907014243467 C8.812656910029773 64.125907014243467 8.812656910029773 64.125907014243467 8.812656910029773 64.125907014243467 C8.812656910029773 64.125907014243467 8.812656910029773 64.125907014243467 8.812656910029773 64.125907014243467 z" />
<glyph unicode="z" horiz-adv-x="81.043310623125763" d="M3.481101726067925 70.805481999972358 C4.526101726067926 71.804481999972367 80.599101726067914 72.802481999972372 80.390101726067925 70.555481999972372 C80.181101726067936 68.308481999972358 47.369101726067932 26.862481999972758 47.369101726067932 26.862481999972758 C47.369101726067932 26.862481999972758 73.911101726067926 32.854481999972762 75.165101726067917 31.106481999972758 C76.419101726067922 29.358481999972753 79.554101726067913 2.643481999971762 78.091101726067919 1.644481999971767 C76.628101726067925 0.645481999971771 4.108101726067918 -2.100518000028259 2.227101726067920 1.394481999971752 C0.346101726067920 4.889481999971757 36.053101726067922 47.751481999972242 36.053101726067922 47.751481999972242 C36.053101726067922 47.751481999972242 5.900101726067929 42.991481999972322 4.646101726067927 45.238481999972322 C3.393101726067927 47.486481999972327 2.436101726067927 69.806481999972362 3.481101726067925 70.805481999972358 zM11.499101726067920 64.125907014243467 C11.499101726067920 64.125907014243467 11.499101726067920 64.125907014243467 11.499101726067920 64.125907014243467 C11.499101726067920 64.125907014243467 11.499101726067920 64.125907014243467 11.499101726067920 64.125907014243467 C11.499101726067920 64.125907014243467 11.499101726067920 64.125907014243467 11.499101726067920 64.125907014243467 z" />
<glyph unicode="" horiz-adv-x="81.885730342772149" d="M61.910177720042654 37.803313093945697 C63.012177720042658 34.805313093945692 47.638177720042648 31.622313093945699 46.964177720042656 33.400313093945691 C44.224177720042654 40.628313093945685 35.026177720042654 38.422313093945696 35.026177720042654 31.593313093945689 C35.026177720042654 24.365313093945694 44.029177720042654 23.362313093945694 46.636177720042653 28.857313093945685 C47.478177720042652 30.632313093945690 62.425177720042655 25.168313093945692 61.582177720042651 23.266313093945691 C51.605177720042647 0.763313093945690 20.835177720042637 7.677313093945685 19.233177720042654 29.172313093945696 C17.427177720042682 53.399313093945707 52.065177720042655 64.580313093945705 61.910177720042654 37.803313093945697 zM80.030177720042659 31.798313093945701 C80.030177720042659 9.705313093945698 62.548177720042659 -8.204686906054249 40.983177720042661 -8.204686906054249 C19.418177720042664 -8.204686906054249 1.936177720042661 9.705313093945698 1.936177720042664 31.798313093945701 C1.936177720042675 53.891313093945705 19.418177720042664 71.801313093945708 40.983177720042661 71.801313093945708 C62.548177720042659 71.801313093945708 80.030177720042659 53.891313093945705 80.030177720042659 31.798313093945701 zM40.982177720042650 62.681313093945704 C24.110177720042650 62.681313093945704 10.432177720042668 48.669313093945696 10.432177720042649 31.383313093945695 C10.432177720042645 14.097313093945694 24.110177720042650 0.085313093945743 40.982177720042650 0.085313093945743 C57.854177720042657 0.085313093945743 71.532177720042654 14.097313093945694 71.532177720042654 31.383313093945695 C71.532177720042654 48.669313093945696 57.855177720042647 62.681313093945704 40.982177720042650 62.681313093945704 zM10.740177720042652 0.835313093945693 C10.740177720042652 0.835313093945693 10.740177720042652 0.835313093945693 10.740177720042652 0.835313093945693 C10.740177720042652 0.835313093945693 10.740177720042652 0.835313093945693 10.740177720042652 0.835313093945693 C10.740177720042652 0.835313093945693 10.740177720042652 0.835313093945693 10.740177720042652 0.835313093945693 z" />
<glyph unicode="" horiz-adv-x="80.561927926184921" d="M43.604540853037612 39.472407403495524 C43.528540853037612 44.568407403495527 37.253540853037613 44.960407403495523 36.461540853037611 44.802407403495522 C36.271540853037614 43.568407403495527 36.957540853037614 39.543407403495522 37.084540853037609 34.605407403495519 C38.097540853037607 34.352407403495519 43.668540853037612 35.238407403495529 43.604540853037612 39.472407403495524 zM48.390540853037606 28.845407403495528 C55.716540853037600 22.673407403495531 58.633540853037601 11.500407403495529 57.715540853037609 10.741407403495529 C56.797540853037603 9.981407403495524 46.440540853037604 9.285407403495526 44.211540853037611 10.551407403495531 C43.239540853037610 11.103407403495538 43.566540853037601 18.722407403495538 38.388540853037611 24.672407403495527 C38.388540853037611 24.672407403495527 39.754540853037611 11.690407403495527 38.312540853037611 10.677407403495522 C36.575540853037609 9.457407403495523 26.592540853037612 9.607407403495529 25.368540853037608 10.425407403495527 C24.144540853037604 11.243407403495524 24.803540853037610 51.619407403495501 25.744540853037606 52.527407403495488 C26.685540853037601 53.435407403495475 28.756540853037606 53.709407403495483 38.921540853037605 53.527407403495488 C49.086540853037604 53.345407403495493 55.439540853037613 48.831407403495518 55.927540853037613 39.323407403495509 C56.207540853037614 33.877407403495525 52.913540853037617 30.507407403495520 48.390540853037606 28.845407403495528 zM40.284540853037612 70.288500389252050 C18.825540853037616 70.288500389252050 1.430540853037623 52.466500389252062 1.430540853037613 30.483500389252058 C1.430540853037609 8.500500389252053 18.826540853037613 -9.321499610748063 40.284540853037612 -9.321499610748063 C61.742540853037617 -9.321499610748063 79.138540853037597 8.500500389252053 79.138540853037597 30.483500389252058 C79.138540853037597 52.466500389252062 61.743540853037608 70.288500389252050 40.284540853037612 70.288500389252050 zM70.696540853037604 31.108407403495519 C70.696540853037604 13.908407403495517 57.086540853037604 -0.034592596504510 40.297540853037603 -0.034592596504510 C23.508540853037601 -0.034592596504510 9.898540853037599 13.908407403495502 9.898540853037602 31.108407403495505 C9.898540853037622 48.308407403495508 23.508540853037601 62.251407403495492 40.297540853037603 62.251407403495492 C57.086540853037604 62.251407403495492 70.696540853037604 48.308407403495522 70.696540853037604 31.108407403495519 zM10.230540853037610 0.504407403495520 C10.230540853037610 0.504407403495520 10.230540853037610 0.504407403495520 10.230540853037610 0.504407403495520 C10.230540853037610 0.504407403495520 10.230540853037610 0.504407403495520 10.230540853037610 0.504407403495520 C10.230540853037610 0.504407403495520 10.230540853037610 0.504407403495520 10.230540853037610 0.504407403495520 z" />
<glyph unicode="" horiz-adv-x="56" d="M28.000000000000000 64.125907014243467 C28.000000000000000 64.125907014243467 28.000000000000000 64.125907014243467 28.000000000000000 64.125907014243467 C28.000000000000000 64.125907014243467 28.000000000000000 64.125907014243467 28.000000000000000 64.125907014243467 C28.000000000000000 64.125907014243467 28.000000000000000 64.125907014243467 28.000000000000000 64.125907014243467 z" />
<glyph unicode="" horiz-adv-x="56.924411400247777" d="M1.819923172242820 53.325991192308891 C2.069923172242820 53.967991192308887 15.803923172242826 51.857991192308816 29.243923172242823 52.069991192308862 C42.082923172242822 52.271991192309024 54.654923172242817 54.821991192308900 54.953923172242810 54.330991192308900 C55.565923172242805 53.325991192308905 55.565923172242805 47.044991192308913 54.831923172242810 45.536991192308918 C54.472923172242815 44.799991192308923 41.727923172242818 45.675991192308757 28.876923172242819 45.536991192308918 C15.444923172242817 45.391991192309106 1.885923172242816 44.263991192308936 1.697923172242817 45.033991192308932 C1.329923172242822 46.541991192308942 1.329923172242822 52.069991192308891 1.819923172242820 53.325991192308891 zM10.465923172242810 2.125907014243467 C10.465923172242810 2.125907014243467 10.465923172242810 2.125907014243467 10.465923172242810 2.125907014243467 C10.465923172242810 2.125907014243467 10.465923172242810 2.125907014243467 10.465923172242810 2.125907014243467 C10.465923172242810 2.125907014243467 10.465923172242810 2.125907014243467 10.465923172242810 2.125907014243467 zM10.465923172242810 2.125907014243467 C10.465923172242810 2.125907014243467 10.465923172242810 2.125907014243467 10.465923172242810 2.125907014243467 C10.465923172242810 2.125907014243467 10.465923172242810 2.125907014243467 10.465923172242810 2.125907014243467 C10.465923172242810 2.125907014243467 10.465923172242810 2.125907014243467 10.465923172242810 2.125907014243467 zM10.465923172242810 2.125907014243467 C10.465923172242810 2.125907014243467 10.465923172242810 2.125907014243467 10.465923172242810 2.125907014243467 C10.465923172242810 2.125907014243467 10.465923172242810 2.125907014243467 10.465923172242810 2.125907014243467 C10.465923172242810 2.125907014243467 10.465923172242810 2.125907014243467 10.465923172242810 2.125907014243467 z" />
<glyph unicode="" horiz-adv-x="70.198265179677833" d="M11.231722428748412 2.125907014243467 C11.231722428748412 2.125907014243467 11.231722428748412 2.125907014243467 11.231722428748412 2.125907014243467 C11.231722428748412 2.125907014243467 11.231722428748412 2.125907014243467 11.231722428748412 2.125907014243467 C11.231722428748412 2.125907014243467 11.231722428748412 2.125907014243467 11.231722428748412 2.125907014243467 zM2.734722428748409 54.021067269201140 C3.042722428748409 54.663067269201136 19.957722428748411 52.553067269201250 36.510722428748416 52.765067269201126 C52.323722428748425 52.967067269201159 67.807722428748420 55.517067269201149 68.175722428748429 55.026067269201150 C68.929722428748434 54.021067269201154 68.929722428748434 47.740067269201120 68.025722428748423 46.232067269201124 C67.583722428748430 45.495067269201130 51.886722428748428 46.371067269201347 36.058722428748418 46.232067269201124 C19.515722428748418 46.087067269201071 2.815722428748412 44.959067269201149 2.583722428748413 45.729067269201146 C2.131722428748411 47.237067269201155 2.131722428748411 52.765067269201140 2.734722428748409 54.021067269201140 zM11.231722428748412 2.125907014243467 C11.231722428748412 2.125907014243467 11.231722428748412 2.125907014243467 11.231722428748412 2.125907014243467 C11.231722428748412 2.125907014243467 11.231722428748412 2.125907014243467 11.231722428748412 2.125907014243467 C11.231722428748412 2.125907014243467 11.231722428748412 2.125907014243467 11.231722428748412 2.125907014243467 zM11.231722428748412 2.125907014243467 C11.231722428748412 2.125907014243467 11.231722428748412 2.125907014243467 11.231722428748412 2.125907014243467 C11.231722428748412 2.125907014243467 11.231722428748412 2.125907014243467 11.231722428748412 2.125907014243467 C11.231722428748412 2.125907014243467 11.231722428748412 2.125907014243467 11.231722428748412 2.125907014243467 z" />
<glyph unicode="" horiz-adv-x="32.418835192069423" d="M29.882189591078095 107.408000000000000 C28.143189591078098 114.469000000000010 19.519189591078096 118.700000000000020 11.615189591078096 117.411000000000000 C3.975189591078095 116.164000000000000 0.678189591078095 106.863000000000000 2.177189591078097 100.656000000000010 C3.573189591078097 94.878999999999991 9.311189591078097 89.235000000000014 15.450189591078100 89.713999999999999 C20.097189591078099 90.076999999999998 18.951189591078098 84.783000000000001 15.469189591078099 79.890999999999991 C11.788189591078099 74.719999999999999 5.637189591078098 69.929000000000002 6.338189591078098 70.121999999999986 C27.150189591078092 75.854999999999976 33.521189591078084 92.632000000000005 29.882189591078095 107.408000000000000 zM10.721189591078087 64.125907014243467 C10.721189591078087 64.125907014243467 10.721189591078087 64.125907014243467 10.721189591078087 64.125907014243467 C10.721189591078087 64.125907014243467 10.721189591078087 64.125907014243467 10.721189591078087 64.125907014243467 C10.721189591078087 64.125907014243467 10.721189591078087 64.125907014243467 10.721189591078087 64.125907014243467 z" />
<glyph unicode="" horiz-adv-x="69.432465923172231" d="M27.084988847583574 117.721570051465790 C27.784988847583577 117.914570051465790 21.633988847583574 113.123570051465790 17.953988847583574 107.952570051465780 C14.471988847583571 103.060570051465790 13.326988847583575 97.766570051465806 17.972988847583572 98.129570051465791 C24.111988847583575 98.608570051465790 29.849988847583575 92.964570051465628 31.245988847583575 87.187570051465627 C32.745988847583575 80.981570051465624 29.447988847583574 71.679570051465546 21.807988847583573 70.432570051465561 C13.903988847583573 69.142570051465555 5.279988847583573 73.374570051465554 3.540988847583574 80.435570051465561 C-0.098011152416401 95.211570051465557 6.272988847583576 111.987570051465780 27.084988847583574 117.721570051465790 zM39.540988847583577 80.435570051465561 C41.279988847583574 73.374570051465554 49.903988847583577 69.143570051465545 57.807988847583573 70.432570051465561 C65.447988847583574 71.679570051465546 68.744988847583571 80.980570051465634 67.245988847583575 87.187570051465627 C65.849988847583575 92.964570051465628 60.111988847583575 98.608570051465762 53.972988847583579 98.129570051465777 C49.325988847583574 97.766570051465777 50.471988847583575 103.060570051465790 53.953988847583574 107.952570051465780 C57.634988847583571 113.123570051465780 63.785988847583582 117.914570051465790 63.084988847583574 117.721570051465790 C42.272988847583576 111.987570051465800 35.901988847583596 95.211570051465557 39.540988847583577 80.435570051465561 zM11.486988847583575 82.217604659844454 C11.486988847583575 82.217604659844454 11.486988847583575 82.217604659844454 11.486988847583575 82.217604659844454 C11.486988847583575 82.217604659844454 11.486988847583575 82.217604659844454 11.486988847583575 82.217604659844454 C11.486988847583575 82.217604659844454 11.486988847583575 82.217604659844454 11.486988847583575 82.217604659844454 z" />
<glyph unicode="" horiz-adv-x="69.177199504337068" d="M42.577456009913249 70.084654314166912 C41.877456009913246 69.891654314166914 48.028456009913242 74.682654314166911 51.708456009913249 79.853654314166903 C55.190456009913248 84.745654314166913 56.335456009913244 90.039654314167024 51.689456009913243 89.676654314167024 C45.550456009913241 89.197654314167039 39.812456009913241 94.841654314167144 38.416456009913247 100.618654314167150 C36.916456009913247 106.824654314167150 40.214456009913249 116.126654314167150 47.854456009913250 117.373654314167140 C55.758456009913246 118.663654314167130 64.382456009913255 114.431654314167130 66.121456009913246 107.370654314167140 C69.760456009913270 92.594654314167144 63.389456009913246 75.817654314166901 42.577456009913249 70.084654314166912 zM30.121456009913253 107.370654314167150 C28.382456009913255 114.431654314167150 19.758456009913253 118.662654314167160 11.854456009913253 117.373654314167140 C4.214456009913253 116.126654314167150 0.917456009913252 106.825654314167150 2.416456009913254 100.618654314167150 C3.812456009913254 94.841654314167158 9.550456009913255 89.197654314167039 15.689456009913258 89.676654314167024 C20.336456009913256 90.039654314167024 19.190456009913255 84.745654314166913 15.708456009913256 79.853654314166917 C12.027456009913255 74.682654314166911 5.876456009913255 69.891654314166914 6.577456009913256 70.084654314166912 C27.389456009913250 75.817654314166901 33.760456009913241 92.594654314167144 30.121456009913253 107.370654314167150 zM10.976456009913250 82.093688922545809 C10.976456009913250 82.093688922545809 10.976456009913250 82.093688922545809 10.976456009913250 82.093688922545809 C10.976456009913250 82.093688922545809 10.976456009913250 82.093688922545809 10.976456009913250 82.093688922545809 C10.976456009913250 82.093688922545809 10.976456009913250 82.093688922545809 10.976456009913250 82.093688922545809 z" />
</font>
</defs>
</svg>
